<svg xmlns="http://www.w3.org/2000/svg" viewBox="0 0 50.61 50.54"><defs><style>.cls-1{fill:#fff;}.cls-2{fill:#6f6f6e;}.cls-3{fill:#638576;}</style></defs><g id="Capa_2" data-name="Capa 2"><g id="Capa_3" data-name="Capa 3"><path class="cls-1" d="M24.55,17.69a2.26,2.26,0,1,1,2.26-2.25A2.25,2.25,0,0,1,24.55,17.69Zm0-3.76a1.51,1.51,0,1,0,1.51,1.51A1.51,1.51,0,0,0,24.55,13.93Z"/><path class="cls-1" d="M25.89,25.2h-.1a1.06,1.06,0,0,1-.95-1.14A1.08,1.08,0,0,1,26,23.11h0a1.06,1.06,0,0,1,.95,1.14,1,1,0,0,1-.38.71A1,1,0,0,1,25.89,25.2Zm0-1.34a.3.3,0,0,0,0,.59.28.28,0,0,0,.21-.07.27.27,0,0,0,.11-.2.31.31,0,0,0-.27-.32h0Z"/><path class="cls-1" d="M31.29,37.36h-.1a1,1,0,0,1-.57-1.84,1,1,0,0,1,.77-.24,1,1,0,0,1-.1,2.09Zm0-1.34a.31.31,0,0,0-.19.06.33.33,0,0,0-.11.2.3.3,0,0,0,.6.06.3.3,0,0,0-.27-.32Z"/><path class="cls-1" d="M28.83,35.91h-.1a1,1,0,1,1,.19-2.08h0a1,1,0,0,1,.71.37,1,1,0,0,1-.14,1.47A1,1,0,0,1,28.83,35.91Zm0-1.34a.29.29,0,0,0-.29.27.29.29,0,0,0,.27.32A.26.26,0,0,0,29,35.1a.37.37,0,0,0,.11-.2.29.29,0,0,0-.07-.22.31.31,0,0,0-.2-.11h0Z"/><path class="cls-1" d="M31.83,30.59h-.1a1,1,0,0,1-.7-.37,1,1,0,0,1-.24-.77,1.05,1.05,0,0,1,1.14-.94h0a1.06,1.06,0,0,1,.71.37,1.07,1.07,0,0,1,.23.77,1,1,0,0,1-.37.71A1.1,1.1,0,0,1,31.83,30.59Zm0-1.35a.31.31,0,0,0-.3.27.34.34,0,0,0,.07.22.31.31,0,0,0,.2.11.34.34,0,0,0,.22-.07.31.31,0,0,0,.11-.2.34.34,0,0,0-.07-.22.26.26,0,0,0-.2-.1h0Z"/><path class="cls-1" d="M25,20.34h-.09a1,1,0,0,1-.71-.38A1,1,0,0,1,24,19.2a1,1,0,0,1,1.14-.95,1,1,0,0,1,.71.38,1.06,1.06,0,0,1-.14,1.47A1,1,0,0,1,25,20.34ZM25,19a.28.28,0,0,0-.19.07.3.3,0,0,0,0,.41.31.31,0,0,0,.21.11.28.28,0,0,0,.21-.07.31.31,0,0,0,.11-.2.31.31,0,0,0-.27-.32Z"/><path class="cls-1" d="M33.61,21h-.09a1.08,1.08,0,0,1-.71-.37,1,1,0,0,1,.9-1.71h0A1,1,0,0,1,34.65,20a1,1,0,0,1-.37.71A1,1,0,0,1,33.61,21Zm0-1.34a.29.29,0,0,0-.29.27.29.29,0,0,0,.06.22.3.3,0,0,0,.2.1.24.24,0,0,0,.22-.06.37.37,0,0,0,.11-.2.31.31,0,0,0-.27-.33Z"/><path class="cls-1" d="M28.83,22.67h-.1a1,1,0,0,1-.95-1.14,1.06,1.06,0,0,1,1.14-.94h0a1,1,0,0,1,.71.37,1,1,0,0,1-.14,1.47A1,1,0,0,1,28.83,22.67Zm0-1.35a.3.3,0,0,0-.22.49.26.26,0,0,0,.2.1.27.27,0,0,0,.21-.06.33.33,0,0,0,.11-.2.29.29,0,0,0-.07-.22.31.31,0,0,0-.2-.11h0Z"/><path class="cls-1" d="M19.7,19.67h-.09a1,1,0,0,1-.71-.38,1,1,0,0,1-.24-.76,1,1,0,0,1,1.14-1,1,1,0,0,1-.1,2.09Zm0-1.34a.33.33,0,0,0-.19.06.3.3,0,0,0-.1.21.27.27,0,0,0,.06.21.33.33,0,0,0,.2.11.32.32,0,0,0,.33-.27.3.3,0,0,0-.27-.32Z"/><path class="cls-1" d="M17,23.61h-.1a1,1,0,0,1-.57-1.84,1.08,1.08,0,0,1,.77-.24,1.1,1.1,0,0,1,.71.37,1.07,1.07,0,0,1,.23.77,1,1,0,0,1-.37.71A1,1,0,0,1,17,23.61Zm0-1.34a.31.31,0,0,0-.19.06.33.33,0,0,0-.11.2.31.31,0,0,0,.27.33.29.29,0,0,0,.22-.07.31.31,0,0,0,.11-.2.34.34,0,0,0-.07-.22.26.26,0,0,0-.2-.1Z"/><path class="cls-1" d="M21.18,30.47h-.1a1,1,0,0,1-.71-.38,1,1,0,0,1-.23-.76,1,1,0,0,1,1.13-.95h0a1.05,1.05,0,0,1,.58,1.85A1,1,0,0,1,21.18,30.47Zm0-1.34a.3.3,0,0,0-.3.27.27.27,0,0,0,.07.21.29.29,0,0,0,.42,0,.3.3,0,0,0,.1-.2.26.26,0,0,0-.07-.22.3.3,0,0,0-.2-.1h0Z"/><path class="cls-1" d="M20.89,35.31H20.8a1,1,0,0,1-.71-.37,1,1,0,0,1-.24-.77,1,1,0,0,1,.37-.7,1,1,0,0,1,.77-.24h0a1,1,0,0,1,.94,1.14,1.06,1.06,0,0,1-.37.71A1.08,1.08,0,0,1,20.89,35.31Zm0-1.35a.34.34,0,0,0-.19.07.26.26,0,0,0-.1.2.29.29,0,0,0,.06.22.31.31,0,0,0,.2.11.41.41,0,0,0,.22-.07.31.31,0,0,0,.11-.2.34.34,0,0,0-.07-.22.31.31,0,0,0-.2-.11h0Z"/><path class="cls-1" d="M18.82,33.61h-.1a1,1,0,0,1-.71-.37,1.08,1.08,0,0,1-.24-.77,1,1,0,0,1,.38-.71,1.06,1.06,0,0,1,1.47.14,1,1,0,0,1-.14,1.47A1,1,0,0,1,18.82,33.61Zm0-1.35a.32.32,0,0,0-.19.07.31.31,0,0,0-.11.2.29.29,0,0,0,.07.22.26.26,0,0,0,.2.1.3.3,0,0,0,.22-.06.32.32,0,0,0,.1-.2.26.26,0,0,0-.07-.22.31.31,0,0,0-.2-.11Z"/><rect class="cls-1" x="16.35" y="20.24" width="3.9" height="0.75" transform="translate(-9.01 24.33) rotate(-56.14)"/><rect class="cls-1" x="22.01" y="16.69" width="0.75" height="4.36" transform="translate(1.03 38.92) rotate(-83.32)"/><rect class="cls-1" x="26.54" y="18.8" width="0.75" height="3.38" transform="translate(-4.72 32.46) rotate(-57.99)"/><rect class="cls-1" x="29.25" y="20.42" width="4.08" height="0.75" transform="translate(-5.17 11.71) rotate(-19.61)"/><rect class="cls-1" x="25.01" y="19.83" width="0.75" height="3.86" transform="translate(-3.55 5) rotate(-10.52)"/><rect class="cls-1" x="20.54" y="26.42" width="6.03" height="0.75" transform="translate(-12.11 25.62) rotate(-46.79)"/><rect class="cls-1" x="28.56" y="23.3" width="0.75" height="7.09" transform="translate(-10.3 31.15) rotate(-49.12)"/><rect class="cls-1" x="27.83" y="31.81" width="5.06" height="0.75" transform="translate(-12.66 42.5) rotate(-60.16)"/><rect class="cls-1" x="29.63" y="34.64" width="0.75" height="1.8" transform="translate(-15.82 43.49) rotate(-59.67)"/><polygon class="cls-1" points="21.41 33.8 20.66 33.77 20.8 29.98 21.55 30 21.41 33.8"/><rect class="cls-1" x="19.4" y="32.57" width="0.75" height="1.71" transform="translate(-18.34 25.98) rotate(-48.34)"/><rect class="cls-1" x="24.36" y="17.09" width="0.75" height="1.76" transform="translate(-3.1 5.31) rotate(-11.55)"/><path class="cls-2" d="M25.27,50.54a25.28,25.28,0,1,1,15-45.68,25.25,25.25,0,0,1,5.5,35.33h0A25.28,25.28,0,0,1,25.27,50.54Zm.06-46a20.78,20.78,0,1,0,16.77,33h0a20.78,20.78,0,0,0-16.77-33Z"/><path class="cls-3" d="M25.27,50.54a25.28,25.28,0,1,1,15-45.68L37.58,8.5a20.79,20.79,0,1,0,4.52,29l3.63,2.66A25.28,25.28,0,0,1,25.27,50.54Z"/></g></g></svg>