<svg xmlns="http://www.w3.org/2000/svg" viewBox="0 0 50.61 50.54"><defs><style>.cls-1{fill:#fff;}.cls-2{fill:#6f6f6e;}.cls-3{fill:#638576;}</style></defs><g id="Capa_2" data-name="Capa 2"><g id="Capa_3" data-name="Capa 3"><path class="cls-1" d="M30.42,33.83H15A1.83,1.83,0,0,1,13.19,32V23.59A1.83,1.83,0,0,1,15,21.77h15.4a1.82,1.82,0,0,1,1.82,1.82V32A1.82,1.82,0,0,1,30.42,33.83ZM15,22.52a1.08,1.08,0,0,0-1.08,1.07V32A1.08,1.08,0,0,0,15,33.08h15.4A1.07,1.07,0,0,0,31.49,32V23.59a1.07,1.07,0,0,0-1.07-1.07Z"/><path class="cls-1" d="M33.11,29.84H31.87v-.75h1.24a.91.91,0,0,0,.91-.91V20.85a.91.91,0,0,0-.91-.91H18.92a.9.9,0,0,0-.9.91v1.29h-.75V20.85a1.65,1.65,0,0,1,1.65-1.66H33.11a1.66,1.66,0,0,1,1.66,1.66v7.33A1.66,1.66,0,0,1,33.11,29.84Z"/><path class="cls-1" d="M35.76,27.55H34.4V26.8h1.36a.91.91,0,0,0,.91-.91V18.37a.91.91,0,0,0-.91-.91H21.55a.91.91,0,0,0-.91.91v1.2h-.75v-1.2a1.66,1.66,0,0,1,1.66-1.66H35.76a1.66,1.66,0,0,1,1.66,1.66v7.52A1.66,1.66,0,0,1,35.76,27.55Z"/><path class="cls-2" d="M25.27,50.54a25.28,25.28,0,1,1,15-45.68,25.27,25.27,0,0,1-15,45.68Zm.06-46a20.78,20.78,0,1,0,16.77,33h0a20.77,20.77,0,0,0-16.77-33Z"/><path class="cls-3" d="M25.27,50.54a25.28,25.28,0,1,1,15-45.68L37.58,8.49A20.84,20.84,0,0,0,8.51,13a20.77,20.77,0,0,0,4.52,29A20.84,20.84,0,0,0,42.1,37.53l3.63,2.65A25.28,25.28,0,0,1,25.27,50.54Z"/></g></g></svg>