<svg xmlns="http://www.w3.org/2000/svg" viewBox="0 0 50.61 50.54"><defs><style>.cls-1{fill:#fff;}.cls-2{fill:#6f6f6e;}.cls-3{fill:#638576;}</style></defs><g id="Capa_2" data-name="Capa 2"><g id="Capa_3" data-name="Capa 3"><path class="cls-1" d="M24.86,16l-.94.4,1.39-3.31,1.4,3.31-1-.41v2.2a.27.27,0,0,0,.18.3l5.26,2.62.89.44a.55.55,0,0,1,.31.58v4.17c0,1.4,0,2.8,0,4.2a.47.47,0,0,0,.29.49c.69.33,1.37.68,2.06,1l.16.05.07-1,2.33,2.73-3.57-.23.77-.68-.38-.21-1.93-1a.38.38,0,0,0-.4,0l-6.19,3.1a.52.52,0,0,1-.5,0l-4.52-2.27-1.71-.85a.37.37,0,0,0-.27,0l-2.43,1.22.78.69-3.58.23,2.34-2.73.07,1,.38-.17,2-1a.25.25,0,0,0,.16-.26V25.55c0-1.13,0-2.27,0-3.41a.58.58,0,0,1,.36-.58L23.67,19l1.08-.55a.24.24,0,0,0,.13-.18c0-.73,0-1.47,0-2.21A.59.59,0,0,0,24.86,16ZM19.11,30.44l1.11-.56,4.5-2.25a.26.26,0,0,0,.17-.26q0-.81,0-1.62c0-.16-.08-.21-.19-.26l-5.44-2.72-.15-.05Zm12.39,0V22.7l-.57.29-5,2.5a.29.29,0,0,0-.19.29c0,.52,0,1,0,1.55a.27.27,0,0,0,.19.31l4.13,2.08ZM25.75,19.38v5.25L31,22Zm-.88,5.25V19.38L19.62,22Zm.88,9.13L31,31.13l-5.25-2.62Zm-6.13-2.63,5.26,2.63V28.5Z"/><path class="cls-2" d="M25.27,50.54a25.28,25.28,0,1,1,15-45.68,25.25,25.25,0,0,1,5.5,35.33h0A25.28,25.28,0,0,1,25.27,50.54Zm.06-46a20.78,20.78,0,1,0,16.77,33h0a20.78,20.78,0,0,0-16.77-33Z"/><path class="cls-3" d="M25.27,50.54a25.28,25.28,0,1,1,15-45.68,25.25,25.25,0,0,1,5.5,35.33h0A25.28,25.28,0,0,1,25.27,50.54Zm.06-46a20.78,20.78,0,1,0,16.77,33h0a20.78,20.78,0,0,0-16.77-33Z"/></g></g></svg>