<svg xmlns="http://www.w3.org/2000/svg" viewBox="0 0 50.62 50.54"><defs><style>.cls-1{fill:#fff;}.cls-2{fill:#6f6f6e;}.cls-3{fill:#638576;}</style></defs><g id="Capa_2" data-name="Capa 2"><g id="Capa_3" data-name="Capa 3"><path class="cls-1" d="M34.87,18.89a.84.84,0,0,1,.8.89v11a.84.84,0,0,1-.8.89H15.74a.85.85,0,0,1-.8-.89v-11a.85.85,0,0,1,.8-.89H34.87m0-1H15.74a1.85,1.85,0,0,0-1.8,1.89v11a1.85,1.85,0,0,0,1.8,1.89H34.87a1.85,1.85,0,0,0,1.8-1.89v-11a1.85,1.85,0,0,0-1.8-1.89Z"/><rect class="cls-1" x="18.18" y="26.09" width="2.52" height="2.87"/><rect class="cls-1" x="24.05" y="23.61" width="2.52" height="5.35"/><rect class="cls-1" x="29.92" y="21.58" width="2.52" height="7.38"/><path class="cls-2" d="M25.27,50.54a25.28,25.28,0,1,1,15-45.68,25.25,25.25,0,0,1,5.5,35.33h0A25.28,25.28,0,0,1,25.27,50.54Zm.06-46a20.78,20.78,0,1,0,16.77,33h0a20.77,20.77,0,0,0-16.77-33Z"/><path class="cls-3" d="M25.27,50.54a25.28,25.28,0,1,1,15-45.68L37.58,8.49A20.84,20.84,0,0,0,8.51,13a20.77,20.77,0,0,0,4.52,29A20.84,20.84,0,0,0,42.1,37.53a20.61,20.61,0,0,0,3.67-16l4.42-.81A25.27,25.27,0,0,1,25.27,50.54Z"/></g></g></svg>