<svg xmlns="http://www.w3.org/2000/svg" viewBox="0 0 50.61 50.54"><defs><style>.cls-1{fill:#fff;}.cls-2{fill:#6f6f6e;}.cls-3{fill:#638576;}</style></defs><g id="Capa_2" data-name="Capa 2"><g id="Capa_3" data-name="Capa 3"><path class="cls-1" d="M23.82,31H22.11a.66.66,0,0,0-.72.68.65.65,0,0,0,.72.66h6.38a.67.67,0,1,0,0-1.34Z"/><path class="cls-1" d="M25.28,34.21H22.07a.64.64,0,0,1-.69-.64.66.66,0,0,1,.68-.69h6.47a.67.67,0,1,1,0,1.34H25.28Z"/><path class="cls-1" d="M25.32,34.74H28c.12,0,.3,0,.33.13a.42.42,0,0,1-.12.34c-.43.4-.87.8-1.31,1.18a.69.69,0,0,1-.32.12,7,7,0,0,1-2.69,0,.75.75,0,0,1-.31-.15l-1.15-1s0,0,0,0-.12-.27-.17-.4a1.26,1.26,0,0,1,.37-.13c.9,0,1.8,0,2.71,0Z"/><path class="cls-1" d="M24.93,15.22a1.85,1.85,0,0,1,.47.08.52.52,0,0,1,.29.56.54.54,0,0,1-.46.47c-.35.05-.72.06-1.06.14a4.63,4.63,0,0,0-3.22,3c-.09.22-.2.4-.44.44a.53.53,0,0,1-.62-.74,8.43,8.43,0,0,1,.74-1.47A5.51,5.51,0,0,1,24.93,15.22Z"/><path class="cls-1" d="M28.36,30.44h-6.2a1,1,0,0,1-1-1,6.12,6.12,0,0,0-1.43-4.25,7,7,0,0,1-1.57-4.7,7,7,0,0,1,7.06-7.08,7.08,7.08,0,0,1,7.3,7.17,7.3,7.3,0,0,1-1.6,4.62,6.46,6.46,0,0,0-1.45,4.17A1.06,1.06,0,0,1,28.36,30.44Zm-3.17-16a6,6,0,0,0-6.06,6.08,6,6,0,0,0,1.39,4.11,7.12,7.12,0,0,1,1.61,4.84h6.23c.06,0,.08,0,.08-.08a7.42,7.42,0,0,1,1.62-4.74,6.29,6.29,0,0,0,1.43-4.05A6,6,0,0,0,25.19,14.4Z"/><path class="cls-2" d="M25.27,50.54a25.28,25.28,0,1,1,15-45.68,25.27,25.27,0,0,1-15,45.68Zm.06-46a20.78,20.78,0,1,0,16.77,33h0a20.77,20.77,0,0,0-16.77-33Z"/><path class="cls-3" d="M10.38,45.68a25.28,25.28,0,0,1-5.5-35.33A25.34,25.34,0,0,1,40.23,4.86L37.58,8.49A20.84,20.84,0,0,0,8.51,13a20.77,20.77,0,0,0,4.52,29Z"/></g></g></svg>