<svg xmlns="http://www.w3.org/2000/svg" viewBox="0 0 50.62 50.54"><defs><style>.cls-1{fill:#fff;}.cls-2{fill:#6f6f6e;}.cls-3{fill:#638576;}</style></defs><g id="Capa_2" data-name="Capa 2"><g id="Capa_3" data-name="Capa 3"><path class="cls-1" d="M20.31,31.89a31.4,31.4,0,0,1-5.95-.62A.49.49,0,0,1,14,31a.5.5,0,0,1,0-.43c.92-2,6.93-13.24,7.18-13.72a.46.46,0,0,1,.47-.26A26.1,26.1,0,0,0,33,14.79a.5.5,0,0,1,.7.49c-.1,1.41-5.34,13.35-5.94,14.71a.45.45,0,0,1-.15.19C26.66,31,24.24,31.89,20.31,31.89Zm-5.12-1.48c7.8,1.39,11.14-.54,11.74-.95,1.9-4.31,4.71-10.92,5.55-13.37a27.54,27.54,0,0,1-10.56,1.52C21,19.25,16.54,27.65,15.19,30.41Z"/><path class="cls-1" d="M21.69,34.17c-2.66,0-5.54-.67-7.43-3a.49.49,0,0,1,.08-.7.49.49,0,0,1,.7.08c3.52,4.41,11.38,2.07,12.72,1.63L33.92,18.5H32.31a.5.5,0,0,1-.5-.5.5.5,0,0,1,.5-.5H34.7a.49.49,0,0,1,.45.7L28.59,32.75a.5.5,0,0,1-.29.26A21.36,21.36,0,0,1,21.69,34.17Z"/><path class="cls-1" d="M27.85,35.79c-3.65,0-12.87-.44-13.88-4.9a.5.5,0,0,1,.38-.6.5.5,0,0,1,.59.38c.85,3.75,10.11,4.24,14,4.11L34.76,21.6H33.29a.5.5,0,0,1-.5-.5.51.51,0,0,1,.5-.5h2.23a.5.5,0,0,1,.42.23.49.49,0,0,1,0,.47L29.74,35.47a.5.5,0,0,1-.44.29C29.2,35.77,28.66,35.79,27.85,35.79Z"/><path class="cls-1" d="M19.72,30.18,16.55,30l6-11.86,2.81,0Zm-2.37-.62,2.06.11,5.19-11-1.72,0Z"/><path class="cls-2" d="M25.27,50.54a25.28,25.28,0,1,1,15-45.68,25.24,25.24,0,0,1,5.5,35.32h0A25.27,25.27,0,0,1,25.27,50.54Zm.06-46a20.78,20.78,0,1,0,16.77,33h0a20.77,20.77,0,0,0-16.77-33Z"/><path class="cls-3" d="M25.27,50.54a25.28,25.28,0,1,1,15-45.68L37.58,8.49A20.84,20.84,0,0,0,8.51,13,20.76,20.76,0,0,0,13,42,20.79,20.79,0,0,0,44.69,17.72l4.19-1.63A25.28,25.28,0,0,1,25.27,50.54Z"/></g></g></svg>