<svg xmlns="http://www.w3.org/2000/svg" viewBox="0 0 50.61 50.54"><defs><style>.cls-1{fill:#fff;}.cls-2{fill:#6f6f6e;}.cls-3{fill:#638576;}</style></defs><g id="Capa_2" data-name="Capa 2"><g id="Capa_3" data-name="Capa 3"><path class="cls-1" d="M25.28,35.68a.54.54,0,0,1-.25-.06.52.52,0,0,1-.25-.44V25.34a.5.5,0,0,1,.25-.43l8.62-5a.55.55,0,0,1,.5,0,.52.52,0,0,1,.25.44v9.82a.5.5,0,0,1-.25.43l-8.62,5A.54.54,0,0,1,25.28,35.68Zm.5-10v8.68l7.62-4.42V21.22Z"/><path class="cls-1" d="M25.28,35.68a.54.54,0,0,1-.25-.06l-8.57-5a.5.5,0,0,1-.24-.43V20.25a.5.5,0,0,1,.25-.44.47.47,0,0,1,.5,0l8.57,5.09a.51.51,0,0,1,.24.43v9.84a.5.5,0,0,1-.25.44A.54.54,0,0,1,25.28,35.68Zm-8.06-5.77,7.56,4.4V25.63l-7.56-4.5Z"/><path class="cls-1" d="M25.28,25.84a.43.43,0,0,1-.25-.07l-8.57-5.1a.47.47,0,0,1-.24-.43.48.48,0,0,1,.25-.43L25,14.92a.5.5,0,0,1,.5,0l8.62,5a.52.52,0,0,1,.25.44.5.5,0,0,1-.25.43l-8.62,5A.54.54,0,0,1,25.28,25.84Zm-7.57-5.59,7.57,4.51,7.62-4.4-7.62-4.43Z"/><path class="cls-1" d="M21.5,27h-1V22.79a.5.5,0,0,1,.25-.43l8.52-5,.5.87L21.5,23.08Z"/><path class="cls-2" d="M25.27,50.54a25.28,25.28,0,1,1,15-45.68,25.27,25.27,0,0,1-15,45.68Zm.06-46a20.78,20.78,0,1,0,16.77,33h0a20.77,20.77,0,0,0-16.77-33Z"/><path class="cls-3" d="M25.34,50.52a25.36,25.36,0,0,1-15-4.84A25.28,25.28,0,1,1,40.23,4.86L37.58,8.49A20.84,20.84,0,0,0,8.51,13,20.79,20.79,0,0,0,35.07,43.62l2.11,4A25.29,25.29,0,0,1,25.34,50.52Z"/></g></g></svg>