<svg xmlns="http://www.w3.org/2000/svg" viewBox="0 0 50.61 50.54"><defs><style>.cls-1{fill:#fff;}.cls-2{fill:#6f6f6e;}.cls-3{fill:#638576;}</style></defs><g id="Capa_2" data-name="Capa 2"><g id="Capa_3" data-name="Capa 3"><path class="cls-1" d="M16.28,18.08h18a1,1,0,0,1,1,1h0a1,1,0,0,1-1,1h-18a1,1,0,0,1-1-1h0A1,1,0,0,1,16.28,18.08Zm-.33,1h0a.42.42,0,0,0,.42.42H34.2a.42.42,0,0,0,.42-.42h0a.41.41,0,0,0-.42-.41H16.37A.41.41,0,0,0,16,19.05Z"/><rect class="cls-1" x="23.22" y="15.11" width="4.13" height="1.2"/><path class="cls-1" d="M20.74,30.92l10.47-9.26a1,1,0,0,1,1.34,0h0A.94.94,0,0,1,32.37,23L21.88,32.24c-.49.14-1.65.46-1.86.48C20.28,32.07,20.46,31.6,20.74,30.92ZM24,29,22.44,30.3a.2.2,0,0,0,0,.29h0a.2.2,0,0,0,.28,0l1.53-1.33a.21.21,0,0,0,0-.29h0A.21.21,0,0,0,24,29Z"/><path class="cls-1" d="M35,35.93H15.59a2.4,2.4,0,0,1-2.4-2.39V18.35A2.4,2.4,0,0,1,15.59,16H35a2.4,2.4,0,0,1,2.4,2.39V33.54A2.4,2.4,0,0,1,35,35.93ZM15.59,17a1.4,1.4,0,0,0-1.4,1.39V33.54a1.4,1.4,0,0,0,1.4,1.39H35a1.4,1.4,0,0,0,1.4-1.39V18.35A1.4,1.4,0,0,0,35,17Z"/><path class="cls-2" d="M25.27,50.54a25.28,25.28,0,1,1,15-45.68,25.27,25.27,0,0,1-15,45.68Zm.06-46a20.78,20.78,0,1,0,16.77,33h0a20.77,20.77,0,0,0-16.77-33Z"/><path class="cls-3" d="M25.27,50.54a25.28,25.28,0,1,1,15-45.68L37.58,8.49A20.84,20.84,0,0,0,8.51,13,20.79,20.79,0,1,0,46,27.57l4.47.49A25.29,25.29,0,0,1,25.27,50.54Z"/></g></g></svg>