<svg xmlns="http://www.w3.org/2000/svg" viewBox="0 0 50.61 50.54"><defs><style>.cls-1{fill:#6f6f6e;}.cls-2{fill:#638576;}.cls-3{fill:#fff;}</style></defs><g id="Capa_2" data-name="Capa 2"><g id="Capa_3" data-name="Capa 3"><path class="cls-1" d="M25.27,50.54a25.28,25.28,0,1,1,15-45.68,25.27,25.27,0,0,1-15,45.68Zm.06-46a20.78,20.78,0,1,0,16.77,33h0a20.77,20.77,0,0,0-16.77-33Z"/><path class="cls-2" d="M25.27,50.54a25.28,25.28,0,1,1,15-45.68L37.58,8.49A20.84,20.84,0,0,0,8.51,13,20.76,20.76,0,0,0,13,42,20.84,20.84,0,0,0,42.1,37.53l3.63,2.65A25.28,25.28,0,0,1,25.27,50.54Z"/><path class="cls-3" d="M34,22.87H16.76l1.66-.7.65-.27,3.27-1.36.65-.28,3.27-1.36.65-.27,3.27-1.36.65-.28,2.33-1A.82.82,0,0,0,33.6,15l-.79-1.89a.82.82,0,0,0-1.07-.44L28.5,14l-.64.27-3.27,1.37-.65.27-3.27,1.36-.65.27-3.27,1.37-.65.27L13,20.43a.81.81,0,0,0-.44,1.07l1,2.36a1.94,1.94,0,0,0-.24.92v9.71a1.92,1.92,0,0,0,1.91,1.92H34a1.92,1.92,0,0,0,1.92-1.92V24.78A1.92,1.92,0,0,0,34,22.87Zm-3,2.18.31,1.16H27.81l-.31-1.16-.22-.83h3.54Zm-4.24,0,.31,1.16H23.56l-.3-1.16L23,24.22h3.54Zm-4.25,0,.31,1.16H19.32L19,25.05l-.22-.83h3.54Zm-4.24,0,.31,1.16H14.69V24.78a.56.56,0,0,1,.56-.56h2.84ZM34,24.22a.56.56,0,0,1,.56.56v1.43H32.05l-.3-1.16-.22-.83Zm-1.87-11,.9,2.14-2.63,1.1-.73-1-.74-1Zm-3.85,1.6.74.95.73,1-3.27,1.36-.73-.95L25,16.17Zm-3.91,1.64.73.95.73.95-3.27,1.37-.73-1-.73-.95Zm-3.92,1.63.73.95.73,1-3.26,1.36-.74-.95-.73-.95Zm-3.92,1.64.73.95.74.95L14.92,22.9a1.88,1.88,0,0,0-.77.32l-.09,0-.89-2.15ZM34,35.05H15.25a.56.56,0,0,1-.56-.56v-7.6H34.56v7.6A.56.56,0,0,1,34,35.05Z"/></g></g></svg>