<svg xmlns="http://www.w3.org/2000/svg" viewBox="0 0 50.61 50.54"><defs><style>.cls-1{fill:#fff;}.cls-2{fill:#6f6f6e;}.cls-3{fill:#638576;}</style></defs><g id="Capa_2" data-name="Capa 2"><g id="Capa_3" data-name="Capa 3"><path class="cls-1" d="M21.17,23.19H16.84a1,1,0,0,1-1-1V17.82a1,1,0,0,1,1-1h4.33a1,1,0,0,1,1,1v4.33A1,1,0,0,1,21.17,23.19Zm-4.33-5.91a.54.54,0,0,0-.54.54v4.33a.54.54,0,0,0,.54.54h4.33a.54.54,0,0,0,.54-.54V17.82a.54.54,0,0,0-.54-.54Z"/><path class="cls-1" d="M23.16,33.66H16.69a.89.89,0,0,1-.89-.89V31.09a.88.88,0,0,1,.89-.88h6.47a.87.87,0,0,1,.88.88v1.68A.88.88,0,0,1,23.16,33.66Zm-6.47-2.95a.38.38,0,0,0-.39.38v1.68a.39.39,0,0,0,.39.39h6.47a.39.39,0,0,0,.38-.39V31.09a.38.38,0,0,0-.38-.38Z"/><rect class="cls-1" x="26.61" y="16.41" width="2.05" height="0.46"/><rect class="cls-1" x="25.82" y="33.53" width="2.08" height="0.41"/><rect class="cls-1" x="17.4" y="31.75" width="5.04" height="0.41"/><rect class="cls-1" x="17.08" y="18.19" width="3.61" height="0.41"/><rect class="cls-1" x="17.08" y="19.73" width="3.61" height="0.41"/><rect class="cls-1" x="17.08" y="21.19" width="1.49" height="0.41"/><path class="cls-1" d="M26.82,25.63A1.17,1.17,0,1,1,28,24.46,1.17,1.17,0,0,1,26.82,25.63Zm0-1.84a.67.67,0,1,0,.67.67A.67.67,0,0,0,26.82,23.79Z"/><path class="cls-1" d="M25.28,28.53l-.43-.27a3.62,3.62,0,0,1-1.72-3.09,3.65,3.65,0,1,1,5.67,3l-.43.28,0-.5.2-.06h-.2a1.46,1.46,0,0,0-1.59-1.3,1.47,1.47,0,0,0-1.6,1.3.41.41,0,0,0,0,.11ZM26.78,22a3.15,3.15,0,0,0-2,5.56,2.18,2.18,0,0,1,4.1-.06A3.15,3.15,0,0,0,26.78,22Z"/><path class="cls-1" d="M26.78,28.81a3.64,3.64,0,0,1-1.93-.55l-.11-.07v-.12c0-.05,0-.11,0-.16a2.12,2.12,0,0,1,4.19,0v.2l-.1.09A3.63,3.63,0,0,1,26.78,28.81Zm-1.56-.91a3.19,3.19,0,0,0,3.19,0,1.64,1.64,0,0,0-3.19,0Zm3.38,0h0Z"/><path class="cls-1" d="M31.92,36.16H21.74A1.75,1.75,0,0,1,20,34.41v-1h1v1a.75.75,0,0,0,.75.75H31.92a.75.75,0,0,0,.75-.75V16.13a.74.74,0,0,0-.75-.75H21.74a.74.74,0,0,0-.75.75V17H20v-.9a1.75,1.75,0,0,1,1.75-1.75H31.92a1.75,1.75,0,0,1,1.75,1.75V34.41A1.75,1.75,0,0,1,31.92,36.16Z"/><rect class="cls-1" x="19.99" y="22.94" width="1" height="7.52"/><path class="cls-1" d="M33.42,32.21H23.54v-1a.52.52,0,0,0-.14-.36.51.51,0,0,0-.36-.15h-2.8v-8h1a.5.5,0,0,0,.5-.5v-4H33.42ZM24,31.71h8.88v-13H22.21v3.48a1,1,0,0,1-1,1h-.47v7H23a1,1,0,0,1,1,1Z"/><path class="cls-2" d="M25.27,50.54a25.28,25.28,0,1,1,15-45.68,25.27,25.27,0,0,1-15,45.68Zm.06-46a20.78,20.78,0,1,0,16.77,33h0a20.77,20.77,0,0,0-16.77-33Z"/><path class="cls-3" d="M24.35,50.53A25.28,25.28,0,1,1,40.23,4.86L37.58,8.49A20.84,20.84,0,0,0,8.51,13a20.79,20.79,0,0,0,16,33Z"/></g></g></svg>