<svg xmlns="http://www.w3.org/2000/svg" viewBox="0 0 41.36 41.36"><defs><style>.cls-1{fill:#fff;}.cls-2{fill:#02e2a3;}</style></defs><g id="Capa_2" data-name="Capa 2"><g id="Capa_1-2" data-name="Capa 1"><path class="cls-1" d="M18.26,10.3c1.42,0,2.69,0,4,0a2.15,2.15,0,0,1,1.92,1.15c2.49,4.31,5,8.62,7.45,12.92a2.31,2.31,0,0,1,0,2.5c-.61,1-1.2,2.1-1.86,3.26Z"/><path class="cls-1" d="M9.41,25.61h13.4a.79.79,0,0,1,.82.47c.74,1.34,1.51,2.65,2.3,4-.22,0-.38,0-.54,0H13.57a2.41,2.41,0,0,1-2.3-1.34C10.69,27.78,10.08,26.76,9.41,25.61Z"/><path class="cls-1" d="M11.29,22.32l5.09-8.78,5.07,8.78Z"/><path class="cls-2" d="M20.68,41.36A20.68,20.68,0,1,1,41.36,20.68,20.71,20.71,0,0,1,20.68,41.36Zm0-39.26A18.58,18.58,0,1,0,39.26,20.68,18.59,18.59,0,0,0,20.68,2.1Z"/></g></g></svg>