<svg xmlns="http://www.w3.org/2000/svg" viewBox="0 0 41.36 41.36"><defs><style>.cls-1{fill:#fdfdfd;}.cls-2{fill:#8091e7;}.cls-3{fill:#8b9dfd;}.cls-4{fill:#02e2a3;}</style></defs><g id="Capa_2" data-name="Capa 2"><g id="Capa_1-2" data-name="Capa 1"><path class="cls-1" d="M28,13.31a11,11,0,0,0-3.53-1.57c-.16-.05-.44,0-.39-.29a.44.44,0,0,1,.54-.4,10.55,10.55,0,0,1,2.92.8c.46.2.91.44,1.36.66a4.77,4.77,0,0,1,2.4,2.74,31.2,31.2,0,0,1,2.2,7.5c.2,1.19.31,2.39.44,3.58a.7.7,0,0,1-.21.64,11,11,0,0,1-6.46,3.25h-.05c-1.19.15-1.31.08-1.92-.95-.2-.35.1-.33.25-.39A12.77,12.77,0,0,0,28.83,27a2.9,2.9,0,0,0,.8-.8l.17-.13.05-.07c0-.06-.08,0-.11,0l-.18.1a14.71,14.71,0,0,1-4.71,2,18.21,18.21,0,0,1-10.63-.72c-.09,0-.19-.05-.28-.08-.87-.45-1.74-.91-2.59-1.41A9.29,9.29,0,0,0,12.55,27c.34.28.73.51,1.09.76a9.06,9.06,0,0,0,2.15,1.09c.39.14.32.25.15.55a1.52,1.52,0,0,1-1.94.82c-.82-.19-1.63-.4-2.43-.62a11.52,11.52,0,0,1-3.71-2.37,1.27,1.27,0,0,1-.44-1.15,42.64,42.64,0,0,1,.7-4.89,28.24,28.24,0,0,1,2.27-6.69,4,4,0,0,1,1.69-1.8,13.27,13.27,0,0,1,4.44-1.63l.33,0c.29,0,.34.23.39.41s-.17.22-.3.25a11.48,11.48,0,0,0-4.74,2.44.27.27,0,0,0-.14.25,17.85,17.85,0,0,1,15.61-.76,9.09,9.09,0,0,0,1.72.76s0,.08.07,0l-.06,0A4.91,4.91,0,0,0,28,13.31ZM17.19,24.24a2,2,0,0,0,1.53-1.55,2.57,2.57,0,0,0,.08-1.26,2.12,2.12,0,0,0-2.33-1.92,2.48,2.48,0,0,0-1.25,4A1.82,1.82,0,0,0,17.19,24.24ZM22.5,22a2.45,2.45,0,0,0,0,.34,2.24,2.24,0,0,0,1.36,1.86,1.83,1.83,0,0,0,2-.35,2.59,2.59,0,0,0-.34-4.09,1.75,1.75,0,0,0-1.23-.24A2.29,2.29,0,0,0,22.5,22ZM11.9,14.46v0h0Z"/><path class="cls-2" d="M29.8,26.05l-.17.13-.07-.09.18-.1Z"/><polygon class="cls-3" points="11.9 14.46 11.89 14.44 11.91 14.44 11.9 14.46"/><path class="cls-2" d="M29.4,14.39l.06,0c-.06,0-.07,0-.07,0Z"/><path class="cls-2" d="M29.74,26s.07-.07.11,0l-.05.07Z"/><path class="cls-4" d="M20.68,41.36A20.68,20.68,0,1,1,41.36,20.68,20.71,20.71,0,0,1,20.68,41.36Zm0-39.26A18.58,18.58,0,1,0,39.26,20.68,18.59,18.59,0,0,0,20.68,2.1Z"/></g></g></svg>