<svg xmlns="http://www.w3.org/2000/svg" viewBox="0 0 41.36 41.36"><defs><style>.cls-1{fill:#fff;}.cls-2{fill:#02e2a3;}</style></defs><g id="Capa_2" data-name="Capa 2"><g id="Capa_1-2" data-name="Capa 1"><path class="cls-1" d="M31.19,27.62a1.6,1.6,0,0,1-1.69,1.14c-5.9,0-11.8,0-17.7,0-1.16,0-1.63-.54-1.63-1.84V14.4c0-1.23.49-1.79,1.59-1.79,5.9,0,11.8,0,17.7,0a1.6,1.6,0,0,1,1.73,1.14ZM29.25,15.21l-.37.28-7.61,6.24c-.5.4-.67.41-1.16,0l-6.95-5.69-1-.83V26.81H29.25Zm-2.39-.67H14.51l6.18,5Z"/><path class="cls-2" d="M20.68,41.36A20.68,20.68,0,1,1,41.36,20.68,20.71,20.71,0,0,1,20.68,41.36Zm0-39.26A18.58,18.58,0,1,0,39.26,20.68,18.59,18.59,0,0,0,20.68,2.1Z"/></g></g></svg>