<svg xmlns="http://www.w3.org/2000/svg" viewBox="0 0 41.36 41.36"><defs><style>.cls-1{fill:#fff;}.cls-2{fill:#02e2a3;}</style></defs><g id="Capa_2" data-name="Capa 2"><g id="Capa_1-2" data-name="Capa 1"><path class="cls-1" d="M20,31.13H15.77a6.16,6.16,0,0,1-6-5.05,7,7,0,0,1-.11-1.21c0-2.82,0-5.64,0-8.46a6.19,6.19,0,0,1,4.87-6.05,6,6,0,0,1,1.27-.13h8.59a6.14,6.14,0,0,1,6.08,5.07,6.4,6.4,0,0,1,.11,1.15q0,4.26,0,8.52A6.16,6.16,0,0,1,25.48,31a6.64,6.64,0,0,1-1.18.11C22.88,31.14,21.45,31.13,20,31.13Zm.07-1.9H23a16.31,16.31,0,0,0,2-.06A4.2,4.2,0,0,0,28.64,25q0-4.35,0-8.7a3.79,3.79,0,0,0-.4-1.74,4.13,4.13,0,0,0-3.93-2.46c-2.82,0-5.64,0-8.47,0a4.6,4.6,0,0,0-.64,0,4.21,4.21,0,0,0-3.68,4.28v8.46a4.11,4.11,0,0,0,.08.86,4.23,4.23,0,0,0,4.21,3.45Z"/><path class="cls-1" d="M20.09,15a5.7,5.7,0,1,1-5.72,5.67A5.72,5.72,0,0,1,20.09,15Zm0,9.5a3.8,3.8,0,1,0-3.82-3.84A3.81,3.81,0,0,0,20.1,24.48Z"/><path class="cls-1" d="M25.69,14.2a.87.87,0,1,1,0,1.73.86.86,0,0,1-.85-.85A.87.87,0,0,1,25.69,14.2Z"/><path class="cls-2" d="M20.68,41.36A20.68,20.68,0,1,1,41.36,20.68,20.71,20.71,0,0,1,20.68,41.36Zm0-39.26A18.58,18.58,0,1,0,39.26,20.68,18.59,18.59,0,0,0,20.68,2.1Z"/></g></g></svg>