<svg xmlns="http://www.w3.org/2000/svg" viewBox="0 0 41.36 41.36"><defs><style>.cls-1{fill:#fff;}.cls-2{fill:#02e2a3;}</style></defs><g id="Capa_2" data-name="Capa 2"><g id="Capa_1-2" data-name="Capa 1"><path class="cls-1" d="M17.49,30.88a14.29,14.29,0,0,0,2-5.32c1.21,1.51,3.31,1.37,4.74.62A5.76,5.76,0,0,0,27,22.89a6.86,6.86,0,0,0,.07-5,6.13,6.13,0,0,0-4.83-3.8,7.94,7.94,0,0,0-4.59.51,6.14,6.14,0,0,0-3.22,8.2,3.53,3.53,0,0,0,1.48,1.69c.35.2.44.16.54-.23s.17-.64.22-1a.63.63,0,0,0-.08-.43A4.5,4.5,0,0,1,19.19,16a5.18,5.18,0,0,1,3.3.15,3.94,3.94,0,0,1,2.57,3.51,6,6,0,0,1-.88,3.89A2.92,2.92,0,0,1,21.88,25a1.53,1.53,0,0,1-1.69-1.91c.22-.89.52-1.77.74-2.66a3.52,3.52,0,0,0,.1-1.12,1.33,1.33,0,0,0-2-1.1,2.25,2.25,0,0,0-1.15,1.69A4,4,0,0,0,18,22a1,1,0,0,1,0,.48c-.4,1.72-.85,3.42-1.18,5.15a14.47,14.47,0,0,0-.08,2.47,3.23,3.23,0,0,0,0,.53,10.41,10.41,0,1,1,.69.26Z"/><path class="cls-2" d="M20.68,41.36A20.68,20.68,0,1,1,41.36,20.68,20.71,20.71,0,0,1,20.68,41.36Zm0-39.26A18.58,18.58,0,1,0,39.26,20.68,18.59,18.59,0,0,0,20.68,2.1Z"/></g></g></svg>