<svg xmlns="http://www.w3.org/2000/svg" viewBox="0 0 41.36 41.36"><defs><style>.cls-1{fill:#02e2a3;}.cls-2{fill:#fff;}</style></defs><g id="Capa_2" data-name="Capa 2"><g id="Capa_1-2" data-name="Capa 1"><path class="cls-1" d="M20.68,41.36A20.68,20.68,0,1,1,41.36,20.68,20.71,20.71,0,0,1,20.68,41.36Zm0-39.26A18.58,18.58,0,1,0,39.26,20.68,18.59,18.59,0,0,0,20.68,2.1Z"/><path class="cls-2" d="M32.54,15.09a3,3,0,0,0-2.39-2.56,12.48,12.48,0,0,0-2.28-.29c-2.76-.1-5.52-.21-8.29-.21a59.2,59.2,0,0,0-8.2.41,3.11,3.11,0,0,0-2.83,2.72c-.19,1.34-.33,2.7-.4,4.06a31.44,31.44,0,0,0,.4,7.25A3.06,3.06,0,0,0,10.89,29a6.86,6.86,0,0,0,1.44.22c2.73.14,5.47.26,7.53.35,3.75-.12,6.82-.06,9.87-.47a3.11,3.11,0,0,0,2.8-2.7c.2-1.36.34-2.73.41-4.1A32,32,0,0,0,32.54,15.09ZM18,24.45V17.12l6.44,3.67Z"/></g></g></svg>