<svg xmlns="http://www.w3.org/2000/svg" viewBox="0 0 39.99 39.99"><defs><style>.cls-1{isolation:isolate;}.cls-2{opacity:0.96;}.cls-3{opacity:0.21;mix-blend-mode:lighten;}.cls-4,.cls-5{fill:#fff;}.cls-5{stroke:#649376;stroke-miterlimit:10;stroke-width:0.15px;}</style></defs><title>descargar</title><g class="cls-1"><g id="Capa_2" data-name="Capa 2"><g id="Capa_1-2" data-name="Capa 1"><g class="cls-2"><g class="cls-3"><path class="cls-4" d="M20,40A20,20,0,1,1,40,20,20,20,0,0,1,20,40Z"/></g></g><path class="cls-5" d="M19.39,8.26a1.22,1.22,0,0,0,.43.08A4.29,4.29,0,0,1,23.2,12.4c0,3.45,0,6.9,0,10.36,0,.76,0,1.52,0,2.29a2.64,2.64,0,0,1-1.51,2.46,2.78,2.78,0,0,1-2.91-.11,2.68,2.68,0,0,1-1.3-2.34q0-3.25,0-6.51a.75.75,0,1,1,1.49,0v6.28a1.43,1.43,0,0,0,.65,1.3,1.36,1.36,0,0,0,2.09-1.19.65.65,0,0,0,0-.14c0-4.05,0-8.09,0-12.13a2.82,2.82,0,0,0-1.88-2.76,2.76,2.76,0,0,0-3.64,2.53c0,2.37,0,4.75,0,7.13,0,2.59,0,5.17,0,7.76a4,4,0,0,0,3.73,3.86,4.13,4.13,0,0,0,4.17-2.75A4.31,4.31,0,0,0,24.3,27V16.18a.75.75,0,0,1,.6-.83.72.72,0,0,1,.89.6,1.56,1.56,0,0,1,0,.31q0,5.37,0,10.74a5.48,5.48,0,0,1-2.38,4.71,5.37,5.37,0,0,1-4.13.91,5.5,5.5,0,0,1-4.52-4.34A6.09,6.09,0,0,1,14.68,27c0-4.77,0-9.55,0-14.32A4.38,4.38,0,0,1,17.6,8.47c.27-.08.55-.14.83-.21Z"/></g></g></g></svg>