<svg xmlns="http://www.w3.org/2000/svg" viewBox="0 0 172.8 49.37"><defs><style>.cls-1{fill:#fff;}</style></defs><title>logo</title><g id="Capa_2" data-name="Capa 2"><g id="Capa_1-2" data-name="Capa 1"><path class="cls-1" d="M172.8,49.37H0V0H172.8Zm-171-1.8H171V1.8H1.8Z"/><path class="cls-1" d="M103,4V45.24h65.79V4Zm17,14c0,.36-.19.56-.59.56h-9.52v5.15H118a.52.52,0,0,1,.56.59v3.58a.53.53,0,0,1-.56.6h-8.14v8.07a.52.52,0,0,1-.59.59h-4.11a.52.52,0,0,1-.59-.59V14.17a.52.52,0,0,1,.59-.59h14.22a.52.52,0,0,1,.59.59Zm19.44,19.14h-4.82a.69.69,0,0,1-.66-.39l-4.56-7.45h-2.11v7.25a.52.52,0,0,1-.59.59h-4.1a.52.52,0,0,1-.59-.59V14.17a.52.52,0,0,1,.59-.59h8c5.58,0,8.73,3,8.73,7.91a6.91,6.91,0,0,1-4.73,6.93l5.26,7.94C140.07,36.76,139.9,37.05,139.44,37.05Zm19.48-22.78-7.29,14.44v7.75c0,.4-.2.59-.56.59H146.9c-.36,0-.56-.19-.56-.59V28.68l-7.29-14.41c-.2-.4,0-.69.43-.69h4.59a.69.69,0,0,1,.66.46L149,23.66,153.24,14a.62.62,0,0,1,.65-.46h4.6C158.92,13.58,159.11,13.87,158.92,14.27Z"/><path class="cls-1" d="M130.41,18.44h-3.12v6.17h3.12c2.43,0,3.48-.95,3.48-3.09S132.84,18.44,130.41,18.44Z"/><path class="cls-1" d="M30.65,23.39h-8a.51.51,0,0,0-.56.56v3.22a.52.52,0,0,0,.56.59h3.52v3.78a7.22,7.22,0,0,1-3.65.92c-2.5,0-4.14-1.28-4.14-3.91V22c0-2.53,1.58-3.88,4.07-3.88a10.08,10.08,0,0,1,5.09,1.25.51.51,0,0,0,.79-.13l2.2-3.16a.54.54,0,0,0-.16-.82,15.53,15.53,0,0,0-7.88-2.13c-5.59,0-9.46,3-9.46,8.7v6.86c0,5.72,3.91,8.77,9.49,8.77A11.87,11.87,0,0,0,31,34.07a.89.89,0,0,0,.23-.66V24A.51.51,0,0,0,30.65,23.39Z"/><rect class="cls-1" x="33.97" y="13.58" width="5.29" height="23.48" rx="0.59"/><path class="cls-1" d="M51.6,13.15c-6,0-9.55,3.45-9.55,9.29v5.68c0,5.88,3.54,9.33,9.55,9.33s9.59-3.45,9.59-9.33V22.44C61.19,16.6,57.64,13.15,51.6,13.15ZM55.77,28c0,2.93-1.38,4.44-4.17,4.44S47.43,31,47.43,28V22.54c0-2.89,1.41-4.4,4.17-4.4s4.17,1.51,4.17,4.4Z"/><path class="cls-1" d="M76.56,28.42a6.91,6.91,0,0,0,4.73-6.93c0-4.86-3.16-7.91-8.74-7.91h-8a.52.52,0,0,0-.59.59V36.46a.52.52,0,0,0,.59.59h4.11a.52.52,0,0,0,.59-.59V29.21h2.1l4.56,7.45a.71.71,0,0,0,.66.39h4.83c.46,0,.62-.29.39-.69Zm-4.17-3.81H69.27V18.44h3.12c2.43,0,3.48,1,3.48,3.08S74.82,24.61,72.39,24.61Z"/><path class="cls-1" d="M92.49,13.58H84.41a.52.52,0,0,0-.59.59V36.46a.52.52,0,0,0,.59.59h8.08c5.25,0,9.29-2.26,9.29-9.09V22.74C101.78,15.94,97.74,13.58,92.49,13.58Zm3.87,14.61c0,2.72-1.28,3.91-3.81,3.91H89.1V18.5h3.45c2.53,0,3.81,1.25,3.81,4Z"/></g></g></svg>