<svg xmlns="http://www.w3.org/2000/svg" viewBox="0 0 36.69 33.53"><defs><style>.cls-1{fill:#fff;}</style></defs><title>menu</title><g id="Capa_2" data-name="Capa 2"><g id="Capa_3" data-name="Capa 3"><path class="cls-1" d="M1.71,33.39a.18.18,0,0,1-.2-.2V26.37a.18.18,0,0,1,.2-.2H3.44a.24.24,0,0,1,.23.15l.65,1.31c.33.67.76,1.71.94,2.15h0c.17-.44.6-1.48.94-2.15l.64-1.31a.24.24,0,0,1,.24-.15H8.84a.18.18,0,0,1,.2.2v6.82a.18.18,0,0,1-.2.2H7.31a.19.19,0,0,1-.21-.2v-.74c0-.9.05-2.17.12-3.28h0c-.16.41-.62,1.51-.92,2.17l-.18.38a.22.22,0,0,1-.23.15H4.71a.22.22,0,0,1-.23-.15l-.17-.38c-.31-.66-.77-1.76-.92-2.17H3.34c.07,1.11.11,2.38.11,3.28v.74a.18.18,0,0,1-.2.2Z"/><path class="cls-1" d="M14.39,31.63h2.79a.18.18,0,0,1,.2.2v1.36a.18.18,0,0,1-.2.2H12.62a.18.18,0,0,1-.2-.2V26.37a.18.18,0,0,1,.2-.2H17a.18.18,0,0,1,.2.2v1.37a.18.18,0,0,1-.2.2H14.39v.94h2.22a.19.19,0,0,1,.21.2V30.4a.19.19,0,0,1-.21.2H14.39Z"/><path class="cls-1" d="M20.68,33.39a.18.18,0,0,1-.21-.2V26.37a.18.18,0,0,1,.21-.2H22.3a.23.23,0,0,1,.23.14l.81,1.54a23.22,23.22,0,0,1,1.14,2.44h0c-.09-1-.13-1.84-.13-2.67V26.37a.18.18,0,0,1,.2-.2h1.55a.18.18,0,0,1,.2.2v6.82a.18.18,0,0,1-.2.2H24.52a.26.26,0,0,1-.24-.14l-.8-1.33a18.06,18.06,0,0,1-1.24-2.68h0a23.77,23.77,0,0,1,.22,3v1a.18.18,0,0,1-.2.2Z"/><path class="cls-1" d="M32.53,33.53a2.58,2.58,0,0,1-2.87-2.9V26.37a.18.18,0,0,1,.2-.2h1.59a.18.18,0,0,1,.2.2v4.3c0,.65.29,1,.88,1s.88-.35.88-1v-4.3a.18.18,0,0,1,.2-.2h1.58a.18.18,0,0,1,.21.2v4.26A2.59,2.59,0,0,1,32.53,33.53Z"/><rect class="cls-1" y="13.11" width="36.69" height="5.33" rx="2.18"/><rect class="cls-1" width="36.69" height="5.33" rx="2.18"/></g></g></svg>