<svg xmlns="http://www.w3.org/2000/svg" viewBox="0 0 49 49"><defs><style>.cls-1{fill:#fbfbfb;fill-rule:evenodd;}.cls-2{fill:#02e9aa;}</style></defs><title>whasapp</title><g id="Capa_2" data-name="Capa 2"><g id="Capa_1-2" data-name="Capa 1"><path class="cls-1" d="M25.29,37.85h0a14.31,14.31,0,0,1-6.82-1.73l-7.57,2,2-7.4a14.27,14.27,0,1,1,12.36,7.15Zm-6.47-4.32.43.26a11.84,11.84,0,0,0,6,1.65h0a11.86,11.86,0,1,0-10-5.56l.29.45-1.2,4.38ZM32,26.65a1.24,1.24,0,0,1,.49.32,3,3,0,0,1-.21,1.7,3.7,3.7,0,0,1-2.4,1.7,4.82,4.82,0,0,1-2.25-.15,18.58,18.58,0,0,1-2-.75,15.67,15.67,0,0,1-6-5.29l-.06-.09h0A7,7,0,0,1,18,20.4a4,4,0,0,1,1.18-2.9.46.46,0,0,1,.07-.07,1.3,1.3,0,0,1,.95-.45H21c.21,0,.47,0,.72.61l.4,1c.31.75.64,1.57.7,1.69a.66.66,0,0,1,0,.63l-.05.1a2.16,2.16,0,0,1-.3.49c-.06.07-.12.15-.19.22a5.26,5.26,0,0,1-.35.41.51.51,0,0,0-.15.72,10.3,10.3,0,0,0,2,2.47A9.28,9.28,0,0,0,26.42,27l.24.1c.35.18.56.15.77-.09s.89-1,1.13-1.39.47-.3.8-.18,2.08,1,2.44,1.16Z"/><path class="cls-2" d="M24.5,49A24.5,24.5,0,1,1,49,24.5,24.53,24.53,0,0,1,24.5,49Zm0-48A23.5,23.5,0,1,0,48,24.5,23.52,23.52,0,0,0,24.5,1Z"/></g></g></svg>