<svg xmlns="http://www.w3.org/2000/svg" viewBox="0 0 36.61 36.58"><defs><style>.cls-1,.cls-3{fill:none;stroke-miterlimit:10;stroke-width:3.7px;}.cls-1{stroke:#6f6f6e;}.cls-2{fill:#fff;}.cls-3{stroke:#638576;}</style></defs><g id="Capa_2" data-name="Capa 2"><g id="Capa_1-2" data-name="Capa 1"><ellipse class="cls-1" cx="18.31" cy="18.29" rx="16.45" ry="16.44"/><path class="cls-2" d="M23.9,18.73a3.5,3.5,0,0,0,.81,0c0-.07,0-.13,0-.18a1.52,1.52,0,0,0-1.42-1.68c-1,0-1.49.91-1.6,1.89Zm-2.21,1.49a2.19,2.19,0,0,0,2.38,2.47,4.31,4.31,0,0,0,1.78-.34c.07,0,.13,0,.13.08v1.36a.23.23,0,0,1-.11.22,5,5,0,0,1-2.2.41c-2.88,0-4-2.13-4-4.49,0-2.58,1.33-4.69,3.68-4.69s3.21,2,3.21,3.63A5,5,0,0,1,26.51,20a.17.17,0,0,1-.14.15,17.19,17.19,0,0,1-1.82.07H21.69Zm-5.86-1.11c-.31-1.21-1.05-3.85-1.32-5.13h0c-.23,1.28-.83,3.44-1.28,5.13Zm-3.07,1.77-.86,3.26c0,.09-.06.12-.17.12h-1.6c-.11,0-.13,0-.11-.16l3.1-10.84a3.09,3.09,0,0,0,.11-.9c0-.07,0-.11.09-.11h2.29c.08,0,.11,0,.13.11l3.48,11.76c0,.08,0,.14-.09.14h-1.8c-.09,0-.15,0-.17-.11l-.89-3.27Z"/><path class="cls-3" d="M5.63,28.83A16.45,16.45,0,0,1,28,5.07"/></g></g></svg>