<svg xmlns="http://www.w3.org/2000/svg" viewBox="0 0 36.61 36.58"><defs><style>.cls-1{fill:#fff;}.cls-2,.cls-3{fill:none;stroke-miterlimit:10;stroke-width:3.7px;}.cls-2{stroke:#6f6f6e;}.cls-3{stroke:#638576;}</style></defs><g id="Capa_2" data-name="Capa 2"><g id="Capa_1-2" data-name="Capa 1"><path class="cls-1" d="M22.73,16.87c-.86,0-1.15.43-1.15.79s.2.66,1.35,1.26c1.71.83,2.24,1.62,2.24,2.78,0,1.74-1.33,2.67-3.12,2.67a4.76,4.76,0,0,1-2.23-.46c-.08,0-.09-.09-.09-.18V22.14c0-.11.06-.14.13-.09a4,4,0,0,0,2.19.64c.86,0,1.22-.36,1.22-.85s-.26-.74-1.35-1.3c-1.55-.74-2.19-1.49-2.19-2.74,0-1.4,1.1-2.56,3-2.56a5.09,5.09,0,0,1,1.95.3.24.24,0,0,1,.11.22v1.49c0,.08-.06.14-.17.11a3.58,3.58,0,0,0-1.89-.49Zm-9.35,1.29c.25,0,.45,0,.88,0,1.27,0,2.47-.44,2.47-2.17,0-1.38-.86-2.08-2.31-2.08-.43,0-.84,0-1,0Zm-1.94-5.77c0-.07.16-.13.24-.13.7,0,1.73,0,2.81,0,3,0,4.19,1.65,4.19,3.76,0,2.76-2,3.94-4.46,3.94l-.85,0v4.17c0,.09,0,.13-.13.13H11.57c-.08,0-.13,0-.13-.13V12.39Z"/><ellipse class="cls-2" cx="18.31" cy="18.29" rx="16.45" ry="16.44"/><path class="cls-3" d="M31.59,28A16.45,16.45,0,1,1,28,5"/></g></g></svg>