<svg xmlns="http://www.w3.org/2000/svg" viewBox="0 0 36.61 36.58"><defs><style>.cls-1,.cls-2{fill:none;stroke-miterlimit:10;stroke-width:3.7px;}.cls-1{stroke:#6f6f6e;}.cls-2{stroke:#638576;}.cls-3{fill:#fff;}</style></defs><g id="Capa_2" data-name="Capa 2"><g id="Capa_1-2" data-name="Capa 1"><ellipse class="cls-1" cx="18.31" cy="18.29" rx="16.45" ry="16.44"/><path class="cls-2" d="M33.3,25.08A16.46,16.46,0,1,1,28,5"/><path class="cls-3" d="M21.76,17a1.47,1.47,0,0,0-.64-.11c-1.41,0-2.39,1.08-2.39,2.88,0,2.05,1,2.88,2.26,2.88a1.92,1.92,0,0,0,.77-.13Zm-.58-1.78a5.52,5.52,0,0,1,.58,0v-2.9a.1.1,0,0,1,.11-.11h1.77c.09,0,.11,0,.11.08V22.5a7.47,7.47,0,0,0,.06,1.1c0,.08,0,.09-.1.13a6.66,6.66,0,0,1-2.86.64c-2.42,0-4.14-1.49-4.14-4.54a4.34,4.34,0,0,1,4.47-4.63Zm-6.41,8.87c0,.11,0,.14-.14.14H13c-.11,0-.14-.05-.14-.14V12.35c0-.11,0-.14.14-.14h1.69c.09,0,.13,0,.13.13Z"/></g></g></svg>