<svg xmlns="http://www.w3.org/2000/svg" viewBox="0 0 36.61 36.58"><defs><style>.cls-1,.cls-2{fill:none;stroke-miterlimit:10;stroke-width:3.7px;}.cls-1{stroke:#6f6f6e;}.cls-2{stroke:#638576;}.cls-3{fill:#fff;}</style></defs><g id="Capa_2" data-name="Capa 2"><g id="Capa_1-2" data-name="Capa 1"><ellipse class="cls-1" cx="18.31" cy="18.29" rx="16.45" ry="16.44"/><path class="cls-2" d="M5.67,28.83A16.45,16.45,0,0,1,28,5"/><path class="cls-3" d="M20.36,17.22a10.4,10.4,0,0,0-.06-1.07.13.13,0,0,1,.09-.14,11.48,11.48,0,0,1,4.06-.76c.09,0,.13,0,.13.11V17c0,.08,0,.11-.13.11a6.24,6.24,0,0,0-2.11.22v7c0,.09,0,.13-.13.13H20.48c-.09,0-.13,0-.13-.13v-7Zm-8.17,7.14c-.13,0-.16-.05-.16-.16V12.35c0-.09,0-.14.13-.14H13.9c.09,0,.11,0,.11.13V22.55h4.55c.09,0,.12,0,.1.13l-.28,1.56a.15.15,0,0,1-.16.13h-6Z"/></g></g></svg>