<svg xmlns="http://www.w3.org/2000/svg" viewBox="0 0 36.61 36.58"><defs><style>.cls-1,.cls-2{fill:none;stroke-miterlimit:10;stroke-width:3.7px;}.cls-1{stroke:#6f6f6e;}.cls-2{stroke:#638576;}.cls-3{fill:#fff;}</style></defs><g id="Capa_2" data-name="Capa 2"><g id="Capa_1-2" data-name="Capa 1"><ellipse class="cls-1" cx="18.31" cy="18.29" rx="16.45" ry="16.44"/><path class="cls-2" d="M34.75,19.29A16.46,16.46,0,1,1,28,5"/><path class="cls-3" d="M22.62,15.75c0-.09,0-.13.13-.13h1.69c.09,0,.13,0,.13.13v8.5c0,.08,0,.12-.13.12H22.77c-.11,0-.14-.05-.14-.14V15.75Z"/><path class="cls-3" d="M22.5,13.3a1.1,1.1,0,0,1,2.2,0,1,1,0,0,1-1.12,1.1A1,1,0,0,1,22.5,13.3Z"/><path class="cls-3" d="M14.65,21l-.85,3.23c0,.08-.05.1-.16.1H12.06c-.11,0-.13,0-.11-.16L15,13.51a3.55,3.55,0,0,0,.11-.89c0-.08,0-.11.08-.11h2.27c.07,0,.11,0,.13.11L21,24.23c0,.09,0,.14-.08.14H19.15c-.09,0-.14,0-.16-.09L18.1,21Zm3-1.75c-.3-1.19-1-3.8-1.28-5.06h0c-.23,1.26-.8,3.39-1.25,5.06Z"/></g></g></svg>