<svg xmlns="http://www.w3.org/2000/svg" viewBox="0 0 36.61 36.58"><defs><style>.cls-1,.cls-2{fill:none;stroke-miterlimit:10;stroke-width:3.7px;}.cls-1{stroke:#6f6f6e;}.cls-2{stroke:#638576;}.cls-3{fill:#fff;}</style></defs><g id="Capa_2" data-name="Capa 2"><g id="Capa_1-2" data-name="Capa 1"><ellipse class="cls-1" cx="18.31" cy="18.29" rx="16.45" ry="16.44"/><path class="cls-2" d="M5.63,28.83A16.45,16.45,0,0,1,28,5.07"/><path class="cls-3" d="M20.71,17.29c0-.14,0-.45-.05-1.07,0-.09,0-.11.09-.14a11.33,11.33,0,0,1,4-.76c.09,0,.13,0,.13.11V17c0,.09,0,.11-.12.11a6.59,6.59,0,0,0-2.08.22v6.94c0,.09,0,.13-.13.13H20.85c-.09,0-.14,0-.14-.13v-7Zm-7,1c.25,0,.45,0,.89,0,1.29,0,2.51-.45,2.51-2.2,0-1.4-.86-2.1-2.34-2.1-.44,0-.86,0-1.06,0v4.25Zm-1.95-5.85c0-.08,0-.13.11-.13.7,0,1.74-.06,2.83-.06,3.06,0,4.39,1.68,4.39,3.83,0,2.79-2,4-4.52,4l-.86,0v4.23c0,.09,0,.13-.13.13h-1.7c-.09,0-.13,0-.13-.13V12.44Z"/></g></g></svg>