<svg xmlns="http://www.w3.org/2000/svg" viewBox="0 0 36.61 36.58"><defs><style>.cls-1{fill:#fff;}.cls-2,.cls-3{fill:none;stroke-miterlimit:10;stroke-width:3.7px;}.cls-2{stroke:#6f6f6e;}.cls-3{stroke:#638576;}</style></defs><g id="Capa_2" data-name="Capa 2"><g id="Capa_1-2" data-name="Capa 1"><path class="cls-1" d="M17.28,11.17a5.46,5.46,0,0,1,2.81.16l3.84,9.51s-1.27-1.92-5.72-3.29c-1-.25-2.24-1-2.24-1.65A18.07,18.07,0,0,1,17.28,11.17Z"/><path class="cls-1" d="M16.07,22.35c-.33,1.55,0,2.53-1.26,2.53A38.21,38.21,0,0,1,14.64,21a28.8,28.8,0,0,1,2.11-9.83h.15c-.59,1.91-2,4.39-.95,5.39s1.35.91,2.95,1.58,4.62,2.32,5.24,3.21c.36.8,1.21,3,1.21,3l-.32.21-3.58-.23c-.19,0-.25-.1-.38-.65s-1.13-4.87-3-4.87C16.79,18.72,16.07,22.35,16.07,22.35Z"/><path class="cls-1" d="M11.36,24.44a.15.15,0,0,1-.11-.18v0l5.24-13a48,48,0,0,0-2.13,7.63,27.21,27.21,0,0,0,.11,6.05Z"/><ellipse class="cls-2" cx="18.31" cy="18.29" rx="16.45" ry="16.44"/><path class="cls-3" d="M19.71,34.67A16.44,16.44,0,1,1,28,5"/></g></g></svg>