<svg xmlns="http://www.w3.org/2000/svg" viewBox="0 0 36.61 36.58"><defs><style>.cls-1{fill:#fff;}.cls-2,.cls-3{fill:none;stroke-miterlimit:10;stroke-width:3.7px;}.cls-2{stroke:#6f6f6e;}.cls-3{stroke:#638576;}</style></defs><g id="Capa_2" data-name="Capa 2"><g id="Capa_1-2" data-name="Capa 1"><polygon class="cls-1" points="21.04 12.2 24.82 12.21 19.74 21.87 18.49 18.35 21.04 12.2"/><polygon class="cls-1" points="11.8 12.2 15.55 11.84 19.7 22.16 17.43 22.17 11.8 12.2"/><path class="cls-1" d="M21.89,18.35l3.24-6.17a33.42,33.42,0,0,1-3.24,12.17c-.15-.16-.09-.26-.09-.26Z"/><path class="cls-1" d="M25.08,24.52V13.19S25,19.84,22.19,24.52Z"/><path class="cls-1" d="M11.64,24.35V12.22L14.71,18A31.16,31.16,0,0,1,11.64,24.35Z"/><path class="cls-1" d="M14.89,18.25l.14.23V24c0,.26-1.06.59-3.35.59A19,19,0,0,0,14.89,18.25Z"/><ellipse class="cls-2" cx="18.31" cy="18.29" rx="16.45" ry="16.44"/><path class="cls-3" d="M8.6,31.56A16.44,16.44,0,1,1,28,5"/></g></g></svg>