<svg xmlns="http://www.w3.org/2000/svg" viewBox="0 0 36.61 36.58"><defs><style>.cls-1{fill:#fff;}.cls-2,.cls-3{fill:none;stroke-miterlimit:10;stroke-width:3.7px;}.cls-2{stroke:#6f6f6e;}.cls-3{stroke:#638576;}</style></defs><g id="Capa_2" data-name="Capa 2"><g id="Capa_1-2" data-name="Capa 1"><path class="cls-1" d="M14.09,22.6c0,.16-.12.24-.28.16L7.3,19.59a.26.26,0,0,1-.15-.24V18.5a.27.27,0,0,1,.15-.24l6.46-3.17c.16-.08.28,0,.28.16v1.44a.26.26,0,0,1-.17.27L9.38,19l4.49,2a.28.28,0,0,1,.17.27Z"/><path class="cls-1" d="M16.81,24.16a.24.24,0,0,1-.26.16H15.22c-.15,0-.22-.1-.16-.25l4.2-10.38a.24.24,0,0,1,.24-.17h1.31c.17,0,.23.11.17.26Z"/><path class="cls-1" d="M22.27,22.76a.17.17,0,0,1-.24,0,.19.19,0,0,1,0-.13V21.16a.3.3,0,0,1,.18-.27l4.48-2-4.48-2a.28.28,0,0,1-.18-.27V15.25a.17.17,0,0,1,.14-.19.19.19,0,0,1,.13,0l6.48,3.17a.26.26,0,0,1,.16.24v.85a.25.25,0,0,1-.16.24Z"/><ellipse class="cls-2" cx="18.31" cy="18.29" rx="16.45" ry="16.44"/><path class="cls-3" d="M33.53,12.05A16.47,16.47,0,1,1,28,5"/></g></g></svg>