<svg xmlns="http://www.w3.org/2000/svg" viewBox="0 0 36.61 36.58"><defs><style>.cls-1{fill:#fff;}.cls-2,.cls-3{fill:none;stroke-miterlimit:10;stroke-width:3.7px;}.cls-2{stroke:#6f6f6e;}.cls-3{stroke:#638576;}</style></defs><g id="Capa_2" data-name="Capa 2"><g id="Capa_1-2" data-name="Capa 1"><path class="cls-1" d="M11.46,12.45V24.12a1,1,0,0,0,1,1H24.13a1,1,0,0,0,1-1V12.45a1,1,0,0,0-1-1H12.46A1,1,0,0,0,11.46,12.45Zm7.45,9.64a2.41,2.41,0,0,1-.18,1,1.54,1.54,0,0,1-1,.88,2.5,2.5,0,0,1-1.53-.05,1.87,1.87,0,0,1-1.1-1v0l1-.63,0,.06a3.78,3.78,0,0,0,.22.33.72.72,0,0,0,.69.26l.18,0a.53.53,0,0,0,.35-.45,2.34,2.34,0,0,0,0-.38v-4.3h1.29v.06C18.91,19.23,18.92,20.66,18.91,22.09Zm5.07.78a1.63,1.63,0,0,1-.94,1,2.87,2.87,0,0,1-1.36.19,2.71,2.71,0,0,1-1-.24,2.25,2.25,0,0,1-1.08-1,.05.05,0,0,1,0,0v0l1-.6,0,.06a1.54,1.54,0,0,0,.64.6,1.35,1.35,0,0,0,1.08,0,.58.58,0,0,0,.37-.48.55.55,0,0,0-.19-.5,1.59,1.59,0,0,0-.43-.26l-.94-.43a2.42,2.42,0,0,1-.84-.61,1.7,1.7,0,0,1-.39-1,1.93,1.93,0,0,1,.11-.86,1.62,1.62,0,0,1,1-.94,2.51,2.51,0,0,1,1.06-.11,2,2,0,0,1,.84.28,2,2,0,0,1,.67.72s0,0,0,0l-1,.64,0,0A1.06,1.06,0,0,0,22.4,19a.79.79,0,0,0-.82-.11.56.56,0,0,0-.12.94,2.58,2.58,0,0,0,.51.29c.34.16.69.3,1,.47a2,2,0,0,1,.76.63,1.71,1.71,0,0,1,.32.87A2.12,2.12,0,0,1,24,22.87Z"/><ellipse class="cls-2" cx="18.31" cy="18.29" rx="16.45" ry="16.44"/><path class="cls-3" d="M4.37,27.05A16.45,16.45,0,0,1,28,5"/></g></g></svg>