<svg xmlns="http://www.w3.org/2000/svg" viewBox="0 0 36.61 36.58"><defs><style>.cls-1{fill:#fff;}.cls-2,.cls-3{fill:none;stroke-miterlimit:10;stroke-width:3.7px;}.cls-2{stroke:#6f6f6e;}.cls-3{stroke:#638576;}</style></defs><g id="Capa_2" data-name="Capa 2"><g id="Capa_1-2" data-name="Capa 1"><path class="cls-1" d="M21,17.69v-.32l-3-1.75-1.9,1.1,6.44,2.07v2.28l-4.57,2.68-4.53-2.62V18.75l1.59.47v.45l2.94,1.63,1.85-1.08-6.38-2v-2.4l4.55-2.63,4.55,2.66v2.36Zm-3-6a6.77,6.77,0,1,0,6.77,6.77A6.77,6.77,0,0,0,18,11.69h0Z"/><circle class="cls-1" cx="10.92" cy="23.58" r="0.77"/><circle class="cls-1" cx="26.12" cy="23.58" r="1.77"/><circle class="cls-1" cx="17.95" cy="9.39" r="1.11"/><ellipse class="cls-2" cx="18.31" cy="18.29" rx="16.45" ry="16.44"/><path class="cls-3" d="M8.6,31.56A16.44,16.44,0,1,1,28,5"/></g></g></svg>