<svg xmlns="http://www.w3.org/2000/svg" viewBox="0 0 36.61 36.58"><defs><style>.cls-1{fill:#fff;}.cls-2,.cls-3{fill:none;stroke-miterlimit:10;stroke-width:3.7px;}.cls-2{stroke:#6f6f6e;}.cls-3{stroke:#638576;}</style></defs><g id="Capa_2" data-name="Capa 2"><g id="Capa_1-2" data-name="Capa 1"><path class="cls-1" d="M20.07,13.14c-1,0-1.53-.31-1.68-1a1.58,1.58,0,0,1,.78-1.53,1.11,1.11,0,0,1,1.38.16,2.76,2.76,0,0,1,.86,1.43A.62.62,0,0,1,21,13l-.15,0A2.72,2.72,0,0,1,20.07,13.14Z"/><path class="cls-1" d="M26.37,24.16a9.58,9.58,0,0,0-8.06-5.75c.46-.58,1-1.12,1.45-1.65a.57.57,0,0,1,.75-.16,2.12,2.12,0,0,0,2-.08A4.14,4.14,0,0,0,24,15.16.83.83,0,0,0,23.94,14a.91.91,0,0,0-.38-.19,1.4,1.4,0,0,0-.86,0,3.83,3.83,0,0,0-1.2.63.54.54,0,0,1-.62.07c-.47-.2-.94-.39-1.42-.57a5.75,5.75,0,0,0-2.69-.41A6.83,6.83,0,0,0,11.82,17a.36.36,0,0,0-.06.43c.1.13.25.1.39.07a5.15,5.15,0,0,0,1.69-.67.51.51,0,0,0,.25-.49,1.06,1.06,0,0,1,.27-.85,2.54,2.54,0,0,1,2.95-.75c.65.34,1.25.77,1.88,1.14.22.13.12.22,0,.33a16.86,16.86,0,0,0-2,2.22.69.69,0,0,1-.4.27A12.44,12.44,0,0,0,13.86,20a10.34,10.34,0,0,0-3.39,2.77,2.25,2.25,0,0,0-.5,1c0,.39.09.53.49.54A3.56,3.56,0,0,0,12,24a12,12,0,0,0,4.42-3.32,1.16,1.16,0,0,1,1-.43,18,18,0,0,1,3.59.39,6.2,6.2,0,0,1,2.23.86.86.86,0,0,1,.39,1.07.76.76,0,0,0,.25.83,7.4,7.4,0,0,0,1.84,1.35c.24.13.5.44.77.18S26.48,24.41,26.37,24.16Zm-2.93-9.68c.08,0,.18,0,.18.11s-.08.15-.14.19a1.58,1.58,0,0,1-1.36.08A1.75,1.75,0,0,1,23.44,14.48ZM12.07,23.25a1.66,1.66,0,0,1-.74.24c-.28,0-.39-.11-.29-.38A2.5,2.5,0,0,1,12,21.92a10.15,10.15,0,0,1,3.55-1.46A12.12,12.12,0,0,1,12.07,23.25Z"/><ellipse class="cls-2" cx="18.31" cy="18.29" rx="16.45" ry="16.44"/><path class="cls-3" d="M2,20.46A16.44,16.44,0,0,1,28,5"/></g></g></svg>