<svg xmlns="http://www.w3.org/2000/svg" viewBox="0 0 83.88 33.44"><defs><style>.cls-1{fill:#02e9aa;}.cls-2{fill:#272727;}</style></defs><title>fecha 1</title><g id="Capa_2" data-name="Capa 2"><g id="Capa_1-2" data-name="Capa 1"><path class="cls-1" d="M70.35,33.44h-67A3.33,3.33,0,0,1,0,30.11V3.33A3.33,3.33,0,0,1,3.33,0h67A3.32,3.32,0,0,1,73,1.31L83.2,14.7a3.35,3.35,0,0,1,0,4L73,32.13A3.35,3.35,0,0,1,70.35,33.44Z"/><path class="cls-2" d="M16.41,22.47v2.7H7.32V23l4.9-6.48a7.62,7.62,0,0,0,1.12-1.93A4.92,4.92,0,0,0,13.63,13a2.64,2.64,0,0,0-.58-1.84,2.19,2.19,0,0,0-1.71-.64A3.16,3.16,0,0,0,8.45,12.3l-1.6-1.72a5.25,5.25,0,0,1,2-2.09,5.09,5.09,0,0,1,2.73-.75,4.13,4.13,0,0,1,3.21,1.32,5.19,5.19,0,0,1,1.2,3.61,7.84,7.84,0,0,1-.43,2.63,10.36,10.36,0,0,1-1.62,2.8L10.6,22.47Z"/><path class="cls-2" d="M20.18,24.37a6.92,6.92,0,0,1-1.83-3,15,15,0,0,1-.67-4.75,15,15,0,0,1,.67-4.76,7,7,0,0,1,1.83-3,3.88,3.88,0,0,1,5.29,0,6.9,6.9,0,0,1,1.84,3A15,15,0,0,1,28,16.58a15,15,0,0,1-.67,4.75,6.84,6.84,0,0,1-1.84,3,3.86,3.86,0,0,1-5.29,0Zm4.73-3.25a10.5,10.5,0,0,0,.76-4.54A10.52,10.52,0,0,0,24.91,12a2.18,2.18,0,0,0-4.16,0A10.52,10.52,0,0,0,20,16.58a10.5,10.5,0,0,0,.76,4.54,2.18,2.18,0,0,0,4.16,0Z"/><path class="cls-2" d="M33.7,8V25.17H31.42V10.66H28.81V8Z"/><path class="cls-2" d="M43.94,15.21a4.33,4.33,0,0,1,1.51,1.86A6.68,6.68,0,0,1,46,19.84a6.8,6.8,0,0,1-.6,2.94,4.76,4.76,0,0,1-1.62,1.95,4,4,0,0,1-2.29.69,4.43,4.43,0,0,1-3.94-2.21,12,12,0,0,1-1.4-6.34,14.23,14.23,0,0,1,.76-5A6.9,6.9,0,0,1,39,8.8a5,5,0,0,1,3.16-1.06A5.5,5.5,0,0,1,44,8a4.21,4.21,0,0,1,1.45.82l-.84,2.41a3.33,3.33,0,0,0-2.34-.84,3.18,3.18,0,0,0-2.79,1.52,8,8,0,0,0-1,4.4v0A3.68,3.68,0,0,1,39.85,15a4.08,4.08,0,0,1,4.09.19Zm-.83,6.9A3.22,3.22,0,0,0,43.78,20a3.24,3.24,0,0,0-.67-2.14,2.42,2.42,0,0,0-3.6,0,3.16,3.16,0,0,0-.7,2.11,3.17,3.17,0,0,0,.68,2.08,2.29,2.29,0,0,0,1.87.82A2.19,2.19,0,0,0,43.11,22.11Z"/><path class="cls-2" d="M51.88,4.5h2L48,27.63h-2Z"/><path class="cls-2" d="M58.69,8V25.17H56.4V10.66H53.8V8Z"/><path class="cls-2" d="M69.23,10a11.79,11.79,0,0,1,1.4,6.33,14.48,14.48,0,0,1-.75,4.95,6.93,6.93,0,0,1-2.13,3.12,5,5,0,0,1-3.16,1.07,5.45,5.45,0,0,1-1.78-.29,4.1,4.1,0,0,1-1.46-.82l.85-2.41a3.33,3.33,0,0,0,2.34.84,3.16,3.16,0,0,0,2.78-1.52,8,8,0,0,0,1-4.4v0a3.64,3.64,0,0,1-1.4,1.33,4.06,4.06,0,0,1-4.08-.19,4.34,4.34,0,0,1-1.52-1.86,6.68,6.68,0,0,1-.54-2.77,6.75,6.75,0,0,1,.6-2.93,4.72,4.72,0,0,1,1.62-2,4.05,4.05,0,0,1,2.29-.68A4.39,4.39,0,0,1,69.23,10Zm-2,5.3A3.21,3.21,0,0,0,68,13.14a3.17,3.17,0,0,0-.67-2.08,2.31,2.31,0,0,0-1.88-.82,2.15,2.15,0,0,0-1.74.8A3.17,3.17,0,0,0,63,13.16a3.17,3.17,0,0,0,.67,2.14,2.42,2.42,0,0,0,3.6-.05Z"/></g></g></svg>