<svg xmlns="http://www.w3.org/2000/svg" viewBox="0 0 83.86 33.44"><defs><style>.cls-1{fill:#60ad8a;}.cls-2{fill:#272727;}</style></defs><g id="Capa_2" data-name="Capa 2"><g id="Capa_1-2" data-name="Capa 1"><g id="Capa_2-2" data-name="Capa 2"><g id="Capa_1-2-2" data-name="Capa 1-2"><path class="cls-1" d="M70.35,33.44h-67A3.33,3.33,0,0,1,0,30.13V3.33A3.33,3.33,0,0,1,3.33,0h67A3.32,3.32,0,0,1,73,1.31L83.2,14.7a3.36,3.36,0,0,1,0,4L73,32.13A3.35,3.35,0,0,1,70.35,33.44Z"/></g></g><path class="cls-2" d="M20.26,22.46v2.71H11.14V23l4.92-6.52a7.76,7.76,0,0,0,1.12-1.93,5,5,0,0,0,.29-1.64,2.65,2.65,0,0,0-.58-1.85,2.2,2.2,0,0,0-1.72-.64,3.17,3.17,0,0,0-2.9,1.8l-1.61-1.73a5.4,5.4,0,0,1,2-2.11,5.14,5.14,0,0,1,2.75-.75A4.13,4.13,0,0,1,18.58,9a5.19,5.19,0,0,1,1.21,3.63,7.86,7.86,0,0,1-.43,2.64,10.4,10.4,0,0,1-1.62,2.81l-3.31,4.39Z"/><path class="cls-2" d="M24.05,24.37a7,7,0,0,1-1.84-3.06,15,15,0,0,1-.67-4.77,15,15,0,0,1,.67-4.77,7,7,0,0,1,1.84-3.06,3.88,3.88,0,0,1,5.31,0,6.93,6.93,0,0,1,1.85,3.06,15,15,0,0,1,.67,4.77,15,15,0,0,1-.67,4.77,6.93,6.93,0,0,1-1.85,3.06,3.88,3.88,0,0,1-5.31,0ZM28.8,21.1a10.55,10.55,0,0,0,.77-4.56A10.55,10.55,0,0,0,28.8,12a2.19,2.19,0,0,0-4.18,0,10.55,10.55,0,0,0-.77,4.56,10.55,10.55,0,0,0,.77,4.56,2.19,2.19,0,0,0,4.18,0Z"/><path class="cls-2" d="M37.63,7.91V25.17h-2.3V10.6H32.72V7.91Z"/><path class="cls-2" d="M48.22,9.88a11.91,11.91,0,0,1,1.4,6.36,14.31,14.31,0,0,1-.76,5,6.71,6.71,0,0,1-2.13,3.13,5,5,0,0,1-3.17,1.08,5.57,5.57,0,0,1-1.8-.29,4.35,4.35,0,0,1-1.46-.82l.85-2.42a3.37,3.37,0,0,0,2.35.84,3.17,3.17,0,0,0,2.8-1.53,8,8,0,0,0,1-4.41v0a3.77,3.77,0,0,1-1.4,1.35,4,4,0,0,1-1.91.45,3.89,3.89,0,0,1-2.19-.65,4.33,4.33,0,0,1-1.52-1.86,6.65,6.65,0,0,1-.55-2.79,6.85,6.85,0,0,1,.6-2.95,4.73,4.73,0,0,1,1.63-2,4,4,0,0,1,2.3-.69A4.44,4.44,0,0,1,48.22,9.88Zm-2,5.33A3.24,3.24,0,0,0,47,13.09,3.15,3.15,0,0,0,46.27,11a2.3,2.3,0,0,0-1.88-.82,2.16,2.16,0,0,0-1.75.8A3.18,3.18,0,0,0,42,13.11a3.2,3.2,0,0,0,.67,2.15,2.42,2.42,0,0,0,3.62,0Z"/><path class="cls-2" d="M51.46,17h4.87V19.6H51.46Z"/><path class="cls-2" d="M66.2,9.88a11.9,11.9,0,0,1,1.41,6.36,14.31,14.31,0,0,1-.76,5,6.86,6.86,0,0,1-2.13,3.13,5,5,0,0,1-3.18,1.08,5.55,5.55,0,0,1-1.79-.29,4.26,4.26,0,0,1-1.46-.82l.85-2.42a3.35,3.35,0,0,0,2.35.84,3.19,3.19,0,0,0,2.8-1.53,8,8,0,0,0,1-4.41v0a3.74,3.74,0,0,1-1.39,1.35,4,4,0,0,1-1.91.45,3.89,3.89,0,0,1-2.2-.65,4.41,4.41,0,0,1-1.52-1.86,6.81,6.81,0,0,1-.55-2.79,6.7,6.7,0,0,1,.61-2.95,4.79,4.79,0,0,1,1.62-2,4,4,0,0,1,2.3-.69A4.42,4.42,0,0,1,66.2,9.88Zm-2,5.33a3.19,3.19,0,0,0,.7-2.12A3.2,3.2,0,0,0,64.26,11a2.3,2.3,0,0,0-1.88-.82,2.18,2.18,0,0,0-1.76.8A3.23,3.23,0,0,0,60,13.11a3.25,3.25,0,0,0,.67,2.15,2.28,2.28,0,0,0,1.81.79A2.24,2.24,0,0,0,64.24,15.21Z"/></g></g></svg>