<svg xmlns="http://www.w3.org/2000/svg" viewBox="0 0 83.86 33.44"><defs><style>.cls-1{fill:#60ad8a;}.cls-2{fill:#272727;}</style></defs><g id="Capa_2" data-name="Capa 2"><g id="Capa_1-2" data-name="Capa 1"><g id="Capa_2-2" data-name="Capa 2"><g id="Capa_1-2-2" data-name="Capa 1-2"><path class="cls-1" d="M70.35,33.44h-67A3.33,3.33,0,0,1,0,30.13V3.33A3.33,3.33,0,0,1,3.33,0h67A3.32,3.32,0,0,1,73,1.31L83.2,14.7a3.36,3.36,0,0,1,0,4L73,32.13A3.35,3.35,0,0,1,70.35,33.44Z"/></g></g><path class="cls-2" d="M15.84,23.07v2.72H6.71V23.64l4.92-6.51a7.62,7.62,0,0,0,1.12-1.93A4.83,4.83,0,0,0,13,13.55a2.62,2.62,0,0,0-.58-1.84,2.19,2.19,0,0,0-1.71-.65,3.2,3.2,0,0,0-2.91,1.8l-1.6-1.72A5.31,5.31,0,0,1,8.19,9a5.19,5.19,0,0,1,2.75-.75,4.12,4.12,0,0,1,3.22,1.33,5.22,5.22,0,0,1,1.2,3.62,8.12,8.12,0,0,1-.42,2.64,10.59,10.59,0,0,1-1.63,2.81L10,23.07Z"/><path class="cls-2" d="M19.62,25a7.1,7.1,0,0,1-1.84-3.06,15.33,15.33,0,0,1-.67-4.77,15.35,15.35,0,0,1,.67-4.78,7,7,0,0,1,1.84-3.05,3.89,3.89,0,0,1,5.32,0,6.92,6.92,0,0,1,1.85,3.05,15.35,15.35,0,0,1,.67,4.78,15.33,15.33,0,0,1-.67,4.77A7,7,0,0,1,24.94,25a3.92,3.92,0,0,1-5.32,0Zm4.75-3.27a10.4,10.4,0,0,0,.77-4.56,10.42,10.42,0,0,0-.77-4.57,2.19,2.19,0,0,0-4.17,0,10.57,10.57,0,0,0-.77,4.57,10.55,10.55,0,0,0,.77,4.56,2.19,2.19,0,0,0,4.17,0Z"/><path class="cls-2" d="M33.21,8.52V25.79h-2.3V11.21H28.29V8.52Z"/><path class="cls-2" d="M43.79,10.5a11.9,11.9,0,0,1,1.41,6.36,14.31,14.31,0,0,1-.76,5A6.91,6.91,0,0,1,42.31,25,5,5,0,0,1,39.13,26a5.55,5.55,0,0,1-1.79-.28,4.12,4.12,0,0,1-1.46-.83l.85-2.41a3.33,3.33,0,0,0,2.35.84,3.16,3.16,0,0,0,2.79-1.53,8,8,0,0,0,1-4.42v0a3.59,3.59,0,0,1-1.4,1.34,3.88,3.88,0,0,1-1.91.46,3.82,3.82,0,0,1-2.19-.66,4.29,4.29,0,0,1-1.52-1.86,6.73,6.73,0,0,1-.55-2.78,6.85,6.85,0,0,1,.6-3,4.74,4.74,0,0,1,1.63-2,4,4,0,0,1,2.3-.69A4.42,4.42,0,0,1,43.79,10.5Zm-2,5.32a3.2,3.2,0,0,0,.7-2.12,3.17,3.17,0,0,0-.68-2.08A2.32,2.32,0,0,0,40,10.79a2.19,2.19,0,0,0-1.75.8,3.23,3.23,0,0,0-.67,2.14,3.17,3.17,0,0,0,.67,2.14,2.42,2.42,0,0,0,3.62,0Z"/><path class="cls-2" d="M50.93,5h2L47.07,28.25h-2Z"/><path class="cls-2" d="M61.93,23.07v2.72H52.8V23.64l4.92-6.51a7.62,7.62,0,0,0,1.12-1.93,4.84,4.84,0,0,0,.3-1.65,2.62,2.62,0,0,0-.59-1.84,2.19,2.19,0,0,0-1.71-.65,3.17,3.17,0,0,0-2.9,1.8l-1.61-1.72a5.31,5.31,0,0,1,2-2.11A5.19,5.19,0,0,1,57,8.28a4.12,4.12,0,0,1,3.22,1.33,5.22,5.22,0,0,1,1.2,3.62A8.12,8.12,0,0,1,61,15.87a10.32,10.32,0,0,1-1.63,2.81l-3.31,4.39Z"/><path class="cls-2" d="M67.54,8.52V25.79h-2.3V11.21H62.62V8.52Z"/></g></g></svg>