<svg xmlns="http://www.w3.org/2000/svg" viewBox="0 0 95 90"><defs><style>.cls-1{isolation:isolate;}.cls-2{fill:#fff;opacity:0;}.cls-3{fill:#e6332a;}.cls-4{fill:#76dcf4;stroke:#1673a0;stroke-miterlimit:10;}.cls-5{fill:#3ab3dd;}.cls-6{fill:#0d719e;}.cls-7{fill:#eabea0;}.cls-8{fill:#fad6be;}.cls-9{fill:#a04c0b;}.cls-10{opacity:0.65;}.cls-11{fill:#eba686;}.cls-12{fill:#f5f5f5;}.cls-13{fill:#653506;}.cls-14{fill:#fcece3;}.cls-15{mix-blend-mode:multiply;}.cls-16{fill:#583415;}.cls-17{fill:#220300;}.cls-18{fill:#7f4a23;}.cls-19{fill:#0a000b;}.cls-20{fill:#fffae2;}.cls-21{mix-blend-mode:screen;}.cls-22{fill:#e0b23a;}.cls-23{fill:#d79b38;}.cls-24{fill:#f4cb6e;}.cls-25{fill:#1d1d1b;}.cls-26{fill:#9e4c0b;}</style></defs><g class="cls-1"><g id="Capa_1" data-name="Capa 1"><rect class="cls-2" x="-0.36" y="-1.01" width="95.48" height="95.48"/><rect class="cls-3" x="-0.44" y="-1.07" width="95.71" height="95.71"/><ellipse class="cls-4" cx="48.9" cy="52.57" rx="24.93" ry="29.29"/><path class="cls-5" d="M48.9,81.46c7.46,0,14.11-3.82,18.71-10.13v.42c0-7.85-1.38-11.32-4.32-12.54s-19.2-1.34-26.29,0-6.79,9.24-6.79,12.54l.08-.29C34.86,77.61,41.41,81.46,48.9,81.46Z"/><path class="cls-6" d="M67.61,72a.27.27,0,0,1-.27-.26c0-7.41-1.24-11.09-4.15-12.3s-18.91-1.35-26.14,0c-6.61,1.25-6.59,8.44-6.58,11.89v.39a.27.27,0,0,1-.53,0v-.39c0-3.59,0-11.08,7-12.41,6.77-1.29,23.33-1.28,26.45,0s4.48,5,4.48,12.79A.27.27,0,0,1,67.61,72Z"/><ellipse class="cls-7" cx="47.96" cy="63.67" rx="6.05" ry="6.53"/><path class="cls-6" d="M53.26,63.49c0,2.19-2.37,5.79-5.3,5.79s-5.3-3.72-5.3-5.91S45,56.6,48,56.6,53.26,61.3,53.26,63.49ZM48,55.68c-3.61,0-6.54,5-6.54,7.69S44.35,70.2,48,70.2s6.53-4,6.53-6.71S51.57,55.68,48,55.68Z"/><path class="cls-6" d="M61.26,77.87a.25.25,0,0,1,0-.17c.3-2.64.07-4.37-.69-5.15a2.39,2.39,0,0,0-2.06-.48l-.25,0a.27.27,0,0,1-.29-.25.27.27,0,0,1,.25-.28l.24,0a2.85,2.85,0,0,1,2.49.64c.89.91,1.17,2.74.84,5.58a.27.27,0,0,1-.3.23A.28.28,0,0,1,61.26,77.87Z"/><path class="cls-6" d="M54.45,78.17a.23.23,0,0,1-.18.13.27.27,0,0,1-.31-.22c-.47-2.82-.29-4.66.56-5.61A2.86,2.86,0,0,1,57,71.71h.24a.28.28,0,0,1,.26.27.28.28,0,0,1-.27.27H57a2.38,2.38,0,0,0-2,.58c-.72.82-.87,2.56-.43,5.17A.27.27,0,0,1,54.45,78.17Z"/><path class="cls-6" d="M60.9,73.88a.25.25,0,0,1,.21.07.27.27,0,0,1,0,.38c-2,2-3.6,3-4.87,2.85a2.84,2.84,0,0,1-2.06-1.54l-.14-.19a.27.27,0,0,1,.07-.37.26.26,0,0,1,.37.06l.14.21a2.4,2.4,0,0,0,1.67,1.3c1.09.1,2.58-.8,4.44-2.7A.24.24,0,0,1,60.9,73.88Z"/><path class="cls-8" d="M33.62,41.1c-1.3-2-1.8-1.86-2.39-1.86S28,40.67,28,44.71s2.72,7.19,6.53,6.69-.88-10.3-.88-10.3"/><path class="cls-9" d="M33.46,41.21a7.18,7.18,0,0,0-1.27-1.45,1.16,1.16,0,0,0-.78-.25.85.85,0,0,0-.4.06,2.49,2.49,0,0,0-.4.2,5,5,0,0,0-2.11,3,8.44,8.44,0,0,0,0,3.84,6.39,6.39,0,0,0,1.88,3.28,5.45,5.45,0,0,0,1.62,1,5.21,5.21,0,0,0,1.88.29,3.23,3.23,0,0,0,.91-.12,1.12,1.12,0,0,0,.64-.51,2.19,2.19,0,0,0,.28-.85,4.39,4.39,0,0,0,0-1,15.7,15.7,0,0,0-.84-3.85,32.83,32.83,0,0,0-1.46-3.71h0A.2.2,0,0,1,33.8,41a37.93,37.93,0,0,1,1.48,3.75,16.13,16.13,0,0,1,.89,4,5.19,5.19,0,0,1,0,1,2.6,2.6,0,0,1-.33,1,1.59,1.59,0,0,1-.86.71,3.6,3.6,0,0,1-1.05.15,5.75,5.75,0,0,1-2.06-.3,6.13,6.13,0,0,1-1.8-1,7,7,0,0,1-2.13-3.52,9.55,9.55,0,0,1-.28-2.06,9.05,9.05,0,0,1,.28-2.07,5.56,5.56,0,0,1,2.44-3.33,4.31,4.31,0,0,1,.49-.22,1.48,1.48,0,0,1,.57-.08,1.84,1.84,0,0,1,.56.1,1.57,1.57,0,0,1,.49.28A7,7,0,0,1,33.78,41a.18.18,0,0,1-.05.27.19.19,0,0,1-.26,0Z"/><g class="cls-10"><path class="cls-11" d="M33.76,44.52c-.21-1.59-2.27-4.3-3.1-4.15s-1.34,3-1.9,3.38-.15-2.09-.15-2.09A6.87,6.87,0,0,0,28,44.92a7.37,7.37,0,0,0,2.33,5.31,4.91,4.91,0,0,0,4.2,1.17Z"/></g><path class="cls-9" d="M30.78,40.53a.9.9,0,0,1,.49.24c.13.1.24.2.36.31a7.92,7.92,0,0,1,.61.69,10.5,10.5,0,0,1,1,1.53,7.62,7.62,0,0,1,1.06,3.53.2.2,0,0,1-.39,0h0a7.28,7.28,0,0,0-1-3.37A11.19,11.19,0,0,0,32,42a7.63,7.63,0,0,0-.59-.67,3,3,0,0,0-.32-.3,1,1,0,0,0-.31-.18h0a.15.15,0,0,1,0-.29Z"/><path class="cls-9" d="M34,50.48a6.66,6.66,0,0,0-1.71-1.63,10.45,10.45,0,0,1-.95-.83,3.32,3.32,0,0,1-.69-1.08,3.13,3.13,0,0,1-.2-1.28,2.73,2.73,0,0,1,.33-1.24,2.12,2.12,0,0,1,.95-.88A2.66,2.66,0,0,1,33,43.28a.09.09,0,0,1,.09.09.09.09,0,0,1-.08.09h0a2.22,2.22,0,0,0-1.82,1.15A2.27,2.27,0,0,0,31,45.68a2.86,2.86,0,0,0,.17,1.09,4.36,4.36,0,0,0,1.48,1.71,6.3,6.3,0,0,1,1.76,1.8h0a.2.2,0,0,1-.34.2Z"/><path class="cls-9" d="M33,44.25a5.13,5.13,0,0,0-.68,1.49,3,3,0,0,0,0,1.59,4.61,4.61,0,0,0,.73,1.43A9.78,9.78,0,0,0,34.17,50a.19.19,0,0,1,0,.27.19.19,0,0,1-.28,0A7.24,7.24,0,0,1,32.77,49,4.92,4.92,0,0,1,32,47.42a3.06,3.06,0,0,1,0-1.75,4.36,4.36,0,0,1,.86-1.48h0a.06.06,0,0,1,.09,0A0,0,0,0,1,33,44.25Z"/><path class="cls-8" d="M62.9,43.37c2-2.78,3.26-4.75,5.12-4.75s2.74,3,2.74,5.52-1.92,7-4.78,7a16.19,16.19,0,0,0-5.38,1Z"/><path class="cls-9" d="M62.72,43.29c.29-.58.59-1.09.9-1.6a16.74,16.74,0,0,1,1-1.5A7.44,7.44,0,0,1,66,38.84a3.33,3.33,0,0,1,1.93-.72,2.11,2.11,0,0,1,1.1.27,2.71,2.71,0,0,1,.83.7,5.59,5.59,0,0,1,.86,1.75,10.77,10.77,0,0,1,.4,3.7,10,10,0,0,1-1,3.54,6.85,6.85,0,0,1-2.39,2.84,3.91,3.91,0,0,1-.89.38l-.24.06-.24,0a2.69,2.69,0,0,1-.48,0,12.87,12.87,0,0,0-1.75.12,16.06,16.06,0,0,0-3.42.81h0a.19.19,0,0,1-.25-.11.17.17,0,0,1,0-.12Zm.36.17-2.29,8.75L60.53,52h0a17.07,17.07,0,0,1,3.51-.9,13.66,13.66,0,0,1,1.81-.15,3,3,0,0,0,1.57-.45,6.33,6.33,0,0,0,2.13-2.65,9.5,9.5,0,0,0,.91-3.33A9.75,9.75,0,0,0,70,41.06a4.7,4.7,0,0,0-.75-1.5A1.62,1.62,0,0,0,68,38.88a2.57,2.57,0,0,0-1.5.56,7.46,7.46,0,0,0-1.24,1.21c-.38.44-.74.92-1.09,1.39Z"/><g class="cls-10"><path class="cls-11" d="M63.16,44.5c1,.36,1.3-4.12,4.75-4.12.87,0,2.33,2.71,2.68,2.36s.47,2.28-.33,4-1.65,4.12-4,4.36-4.37.64-4.37.64Z"/></g><path class="cls-9" d="M69.43,41.85a12,12,0,0,0-1.05-1.08.89.89,0,0,0-.6-.22,1.11,1.11,0,0,0-.61.2,3.1,3.1,0,0,0-.86,1.11,11.87,11.87,0,0,0-.59,1.36c-.18.47-.35,1-.52,1.43s-.36,1-.55,1.43a13.47,13.47,0,0,1-1.44,2.73h0a.19.19,0,0,1-.27,0,.19.19,0,0,1-.06-.25,29.48,29.48,0,0,0,1.2-2.76c.35-1,.69-1.9,1.09-2.85a12.13,12.13,0,0,1,.68-1.41,3.4,3.4,0,0,1,1.07-1.24,1.67,1.67,0,0,1,.87-.23,1.15,1.15,0,0,1,.47.11,1.74,1.74,0,0,1,.37.26,13.47,13.47,0,0,1,1,1.21.12.12,0,0,1,0,.17.12.12,0,0,1-.16,0Z"/><path class="cls-9" d="M68.26,47.47a7.59,7.59,0,0,1-.8,1.2,3.56,3.56,0,0,1-1.1,1,.71.71,0,0,1-.42.09.5.5,0,0,1-.38-.3,1.79,1.79,0,0,1-.09-.78,8.28,8.28,0,0,1,.26-1.42.19.19,0,1,1,.38.08v0a9.42,9.42,0,0,0-.21,1.35,1.67,1.67,0,0,0,0,.58c0,.06,0,.05,0,.06a.48.48,0,0,0,.19,0,4,4,0,0,0,1-.83,11.34,11.34,0,0,0,.89-1.06h0a.09.09,0,0,1,.14,0A.1.1,0,0,1,68.26,47.47Z"/><path class="cls-9" d="M64.39,49l.86-1.36a5.85,5.85,0,0,0,.67-1.35,2.27,2.27,0,0,0,.06-.68,3.8,3.8,0,0,0-.18-.7c-.17-.47-.41-.94-.63-1.42a.19.19,0,0,1,.09-.26.21.21,0,0,1,.24.05,6.29,6.29,0,0,1,.87,1.41,3.3,3.3,0,0,1,.24.86,2.3,2.3,0,0,1-.11.91,4.7,4.7,0,0,1-.86,1.46c-.33.43-.7.82-1.07,1.22a.12.12,0,0,1-.16,0A.11.11,0,0,1,64.39,49Z"/><path class="cls-8" d="M47.72,61.12c5.18,0,11.25-4.2,13.59-7.95s2.38-4.37,2.38-6.35V38L62.35,26.45,40.24,24l-6.38,9.33.39,6.3s-.17,5.31-.17,7.4a11.55,11.55,0,0,0,2.07,7.39C38.11,57,43.22,61.12,47.72,61.12Z"/><ellipse class="cls-12" cx="42.92" cy="41.42" rx="3.1" ry="3.67"/><path class="cls-11" d="M39.68,41.33c0,1.57,1.09,3.76,3.36,3.76,1.42,0,3.11-1.72,3.11-3.65,0-2.69-1.81-3.88-3.38-3.88S39.68,39.06,39.68,41.33Zm.44.11A3.22,3.22,0,0,1,43,38c1.44,0,2.74,1.25,2.74,3.72a2.92,2.92,0,0,1-2.73,3A3,3,0,0,1,40.12,41.44Z"/><ellipse class="cls-12" cx="53.32" cy="41.42" rx="3.1" ry="3.67"/><path class="cls-11" d="M53.46,37.57c-1.57,0-3.37,1.19-3.37,3.88,0,1.93,1.68,3.65,3.1,3.65,2.28,0,3.36-2.19,3.36-3.75C56.55,39.08,55,37.57,53.46,37.57Zm-.27,7.13a2.93,2.93,0,0,1-2.73-3c0-2.47,1.31-3.72,2.75-3.72a3.21,3.21,0,0,1,2.9,3.46A3,3,0,0,1,53.19,44.7Z"/><path class="cls-8" d="M39.69,41.44c0,1.56,1.13,3.65,3.35,3.65,1.42,0,3.1-1.71,3.11-3.65h.21v2.07c0,1.9-1.54,5.86-3.44,5.86s-3.45-4-3.45-5.86V41.44Z"/><path class="cls-11" d="M40.16,42.22h0A2.84,2.84,0,0,0,43,44.7a2.79,2.79,0,0,0,2.29-1.41c.12.13.08.29,0,.49A3.11,3.11,0,0,1,43,45.09a3.31,3.31,0,0,1-3.14-2.47A.38.38,0,0,1,40.16,42.22Z"/><path class="cls-13" d="M40.41,42.36a3.43,3.43,0,0,0,.72,1.39,2.29,2.29,0,0,0,1.32.75A2.54,2.54,0,0,0,44,44.35a2.76,2.76,0,0,0,1.18-1h0a.11.11,0,0,1,.15,0,.11.11,0,0,1,0,.14,2.88,2.88,0,0,1-1.25,1.17,2.69,2.69,0,0,1-1.7.22A2.64,2.64,0,0,1,40.86,44,3.85,3.85,0,0,1,40,42.47a.2.2,0,0,1,.39-.11Z"/><path class="cls-8" d="M56.54,41.46c0,1.55-1.12,3.64-3.35,3.64-1.41,0-3.1-1.71-3.1-3.64h-.21v2.06c0,1.9,1.54,5.87,3.44,5.87s3.44-4,3.44-5.87V41.46Z"/><path class="cls-11" d="M56.07,42.23h0a2.84,2.84,0,0,1-2.84,2.49A2.79,2.79,0,0,1,50.9,43.3c-.11.13-.08.29,0,.5a3.09,3.09,0,0,0,2.25,1.3,3.32,3.32,0,0,0,3.14-2.46A.39.39,0,0,0,56.07,42.23Z"/><path class="cls-13" d="M56.21,42.48A3.62,3.62,0,0,1,55.37,44a2.61,2.61,0,0,1-1.53.81,2.73,2.73,0,0,1-1.71-.22,3,3,0,0,1-1.25-1.16.11.11,0,0,1,0-.15.11.11,0,0,1,.14,0h0a2.76,2.76,0,0,0,1.18,1,2.54,2.54,0,0,0,1.54.15,2.29,2.29,0,0,0,1.33-.75,3.43,3.43,0,0,0,.71-1.38h0a.2.2,0,0,1,.25-.14.21.21,0,0,1,.15.25Z"/><ellipse class="cls-14" cx="41.13" cy="46.71" rx="1.1" ry="0.76"/><g class="cls-10"><g class="cls-15"><circle class="cls-11" cx="39.7" cy="45.8" r="0.33"/></g><g class="cls-15"><circle class="cls-11" cx="42.11" cy="46.56" r="0.2"/></g><g class="cls-15"><circle class="cls-11" cx="40.55" cy="48.03" r="0.31"/></g></g><ellipse class="cls-14" cx="54.49" cy="46.27" rx="1.1" ry="0.76"/><g class="cls-10"><g class="cls-15"><circle class="cls-11" cx="53.23" cy="46.27" r="0.29"/></g><g class="cls-15"><circle class="cls-11" cx="54.69" cy="48.03" r="0.31"/></g><g class="cls-15"><circle class="cls-11" cx="55.68" cy="45.6" r="0.2"/></g></g><path class="cls-8" d="M42.92,32.32A4.08,4.08,0,0,1,47,36.4v4.19a.84.84,0,0,1-.84.85h0c0-2.69-1.81-3.88-3.38-3.88s-3.09,1.5-3.09,3.78c0,0,0,.07,0,.1h0a.85.85,0,0,1-.84-.85V36.4A4.08,4.08,0,0,1,42.92,32.32Z"/><path class="cls-11" d="M45.81,39.64a.6.6,0,0,1-.24.46h0A2.68,2.68,0,0,0,43,38a2.79,2.79,0,0,0-2.22,1.23l0,0-.51.47a2.8,2.8,0,0,1,0-.56,3,3,0,0,1,2.49-1.53A3.28,3.28,0,0,1,45.81,39.64Z"/><path class="cls-13" d="M39.82,40.64a.27.27,0,0,1-.12,0,.27.27,0,0,1-.12-.37c1.21-2.43,2.52-2.42,3.31-2.42H43a3.1,3.1,0,0,1,2.74,1.92.28.28,0,0,1-.5.23A2.53,2.53,0,0,0,43,38.37h-.08c-.75,0-1.75,0-2.81,2.11A.28.28,0,0,1,39.82,40.64Z"/><path class="cls-8" d="M53.32,32.33a4.08,4.08,0,0,0-4.08,4.08v4.2a.85.85,0,0,0,.85.84h0c0-2.69,1.8-3.88,3.37-3.88s3.09,1.51,3.09,3.78a.34.34,0,0,1,0,.1h0a.85.85,0,0,0,.85-.84v-4.2A4.08,4.08,0,0,0,53.32,32.33Z"/><path class="cls-11" d="M50.42,39.65a.6.6,0,0,0,.24.46h0A2.69,2.69,0,0,1,53.21,38a2.8,2.8,0,0,1,2.22,1.23v0l.52.47a5,5,0,0,0,0-.56,3,3,0,0,0-2.49-1.53A3.28,3.28,0,0,0,50.42,39.65Z"/><path class="cls-13" d="M56.41,40.65a.28.28,0,0,1-.24-.15c-1.06-2.13-2.08-2.11-2.82-2.12h-.07A2.55,2.55,0,0,0,51,40a.27.27,0,0,1-.36.14.29.29,0,0,1-.14-.37,3.1,3.1,0,0,1,2.75-1.92h.07c.77,0,2.1,0,3.31,2.42a.28.28,0,0,1-.12.37A.31.31,0,0,1,56.41,40.65Z"/><g class="cls-10"><g class="cls-15"><path class="cls-11" d="M62.22,26.45,40.11,24l-6.37,9.33.38,6.3S34,44.92,34,47A11.5,11.5,0,0,0,36,54.4c2,2.61,7.07,6.72,11.56,6.72,5.19,0,11.25-4.2,13.6-7.95s2.38-4.37,2.38-6.35V38Zm.15,20.76c0,2.45-2.34,6.24-4.7,8.6S50,60.37,47.85,60.37,42.45,59,40,56.92s-5.17-4.57-5.17-8.15.42-6,.42-8.46.18-4.56.18-5.35,4.06-2.09,6-3.35a23.15,23.15,0,0,1-3,3.11c2.63,0,7.7-3.65,8.43-4s6.52-3.84,8.41-3.44c.89.19,2.31,1.71,3.4,1.77s1.76.38,2,1A22.92,22.92,0,0,1,62,35.74c.34,2.95.56,5.61.56,6.51C62.56,43.62,62.37,45.55,62.37,47.21Z"/></g></g><path class="cls-9" d="M34.16,43.1c.31.17.17.3.2.44l0,.42,0,.84-.05,1.69a17.69,17.69,0,0,0,.14,3.34,10.06,10.06,0,0,0,1,3.14,6.16,6.16,0,0,0,.4.71c.17.23.32.46.49.67s.35.44.54.65.37.42.56.62A22.79,22.79,0,0,0,39.84,58a16.78,16.78,0,0,0,2.83,1.81,13.66,13.66,0,0,0,3.14,1.17,9,9,0,0,0,3.32.08,17.21,17.21,0,0,0,6.2-2.49,22.76,22.76,0,0,0,2.72-2.08A10.77,10.77,0,0,0,60.27,54c.63-.94,1.27-1.87,1.8-2.84a8.72,8.72,0,0,0,1.09-3.06,14.86,14.86,0,0,0,0-1.65l0-1.69,0-1.7V41.57c0-.07,0-.14.27-.22h.2c.19.07.19.14.19.21V43l0,1.7,0,1.7a14.46,14.46,0,0,1,0,1.73,9.1,9.1,0,0,1-1.19,3.28c-.56,1-1.22,1.94-1.86,2.87-.15.23-.32.47-.5.71a7.35,7.35,0,0,1-.59.65,14,14,0,0,1-1.27,1.17,22.33,22.33,0,0,1-2.79,1.93,17.65,17.65,0,0,1-6.39,2.49,9.93,9.93,0,0,1-3.48-.08A13.89,13.89,0,0,1,42.48,60a18.75,18.75,0,0,1-2.92-1.82A23.53,23.53,0,0,1,37,56c-.2-.2-.4-.41-.58-.63s-.38-.43-.56-.66-.35-.46-.52-.7a7.23,7.23,0,0,1-.45-.76,10.65,10.65,0,0,1-1.06-3.32,18.86,18.86,0,0,1-.16-3.43l.06-1.71,0-.85,0-.43c0-.14-.1-.29.22-.41Z"/><g class="cls-10"><path class="cls-11" d="M46,31.44a.8.8,0,0,1,.13,1.21c-.36.25-.94-.26-2.36-.26a14,14,0,0,0-3.67.83l2.68-1.42Z"/></g><path class="cls-9" d="M39.81,32.78A10.84,10.84,0,0,1,41.17,32a10.37,10.37,0,0,1,1.47-.56,7.56,7.56,0,0,1,1.59-.28,5.34,5.34,0,0,1,1.67.2h0a.54.54,0,0,1,.35.46c-.23.26-1.42-.32-2.85,0a8.8,8.8,0,0,0-3.51,1.47.28.28,0,0,1-.2-.12A.29.29,0,0,1,39.81,32.78Z"/><path class="cls-16" d="M46.29,31.83a.45.45,0,0,1,0,.23.54.54,0,0,1-.69.33h0a4.36,4.36,0,0,0-1.31-.26,6.68,6.68,0,0,0-1.4.12,10,10,0,0,0-1.39.41,8.84,8.84,0,0,0-1.32.62h0a.26.26,0,0,1-.19,0,8.8,8.8,0,0,1,3.51-1.47C44.87,31.51,46.06,32.09,46.29,31.83Z"/><g class="cls-10"><path class="cls-11" d="M50.2,31.44a.8.8,0,0,0-.13,1.21c.37.25,1-.25,2.36-.25a14,14,0,0,1,3.67.83L53.42,31.8Z"/></g><path class="cls-9" d="M56.4,32.78A11,11,0,0,0,55,32a10.37,10.37,0,0,0-1.47-.56A7.56,7.56,0,0,0,52,31.16a5.25,5.25,0,0,0-1.66.2h0a.54.54,0,0,0-.36.47c.23.25,1.42-.33,2.85,0a8.71,8.71,0,0,1,3.52,1.48.39.39,0,0,0,.19-.12A.3.3,0,0,0,56.4,32.78Z"/><path class="cls-16" d="M49.91,31.84a.56.56,0,0,0,0,.22.54.54,0,0,0,.7.33h0A4.36,4.36,0,0,1,52,32.12a6.7,6.7,0,0,1,1.4.13,8.66,8.66,0,0,1,1.38.4,10.08,10.08,0,0,1,1.33.62h0a.26.26,0,0,0,.19,0,8.71,8.71,0,0,0-3.52-1.48C51.33,31.51,50.14,32.09,49.91,31.84Z"/><path class="cls-17" d="M44.91,41.44a1.79,1.79,0,1,1-1.78-1.92A1.86,1.86,0,0,1,44.91,41.44Z"/><path class="cls-18" d="M43.13,39.65a1.77,1.77,0,1,0,1.63,1.76A1.71,1.71,0,0,0,43.13,39.65Z"/><path class="cls-19" d="M44.23,41.33a1.13,1.13,0,1,1-1.12-1.21A1.17,1.17,0,0,1,44.23,41.33Z"/><path class="cls-20" d="M42.68,40.62c-.08.3-.33.51-.56.46s-.34-.31-.26-.61a.56.56,0,0,1,.56-.47C42.64,40,42.76,40.32,42.68,40.62Z"/><g class="cls-21"><path class="cls-18" d="M44,42.3a1.23,1.23,0,0,1-2.17-.88.72.72,0,0,0-.23.17A1.49,1.49,0,0,0,42.67,43a1.4,1.4,0,0,0,1.5-.48S44.05,42.28,44,42.3Z"/></g><g class="cls-21"><path class="cls-18" d="M44.39,40.83a1.69,1.69,0,0,1-.23,1.3l.16.08A1.17,1.17,0,0,0,44.39,40.83Z"/></g><path class="cls-17" d="M54.89,41.45a1.79,1.79,0,1,1-1.78-1.92A1.86,1.86,0,0,1,54.89,41.45Z"/><path class="cls-18" d="M53.11,39.66a1.77,1.77,0,1,0,1.63,1.76A1.7,1.7,0,0,0,53.11,39.66Z"/><path class="cls-19" d="M54.21,41.34a1.13,1.13,0,1,1-1.12-1.21A1.17,1.17,0,0,1,54.21,41.34Z"/><path class="cls-20" d="M52.66,40.63a.56.56,0,0,1-.56.47c-.23,0-.34-.32-.26-.62s.33-.51.55-.47S52.74,40.33,52.66,40.63Z"/><g class="cls-21"><path class="cls-18" d="M54,42.31a1.23,1.23,0,0,1-2.17-.87s-.24.14-.24.16A1.52,1.52,0,0,0,52.65,43a1.39,1.39,0,0,0,1.5-.48S54,42.29,54,42.31Z"/></g><g class="cls-21"><path class="cls-18" d="M54.37,40.84a1.69,1.69,0,0,1-.23,1.3l.16.08A1.17,1.17,0,0,0,54.37,40.84Z"/></g><path class="cls-22" d="M43.42,7.84a21.11,21.11,0,0,1,9.19,5.49l2.06,2.06.42-3.65s3.2,2.38,3.88,3,3.86,2.56,3.54,5.47A11.16,11.16,0,0,1,66.36,18a18.29,18.29,0,0,1-1.6,5.85c2.92.8,3.19,1.49,3.19,1.89-.08.55-2.89,2-2.89,2s.15-.31,2.06.92c1,.72,1.81,1.79,1.33,1.91a15.11,15.11,0,0,1-3.32.15c.85.51,1.46,1.28,2.17,1.16a4.2,4.2,0,0,1-2.51-.23c.09,3-1.27,8.39-1,10.77-.91-1.82-1-11-3.2-13.72-1.79,0-4.22-2.09-5.73-2.09s-2.37.34-14.72,7.16c3.08-2.28,2.79-3.69,2.79-3.69a30.11,30.11,0,0,1-3.59,2.06A29.23,29.23,0,0,1,34.83,34c-.13,1.38-.46,8.77-.62,9l-.15.17c-.86-4.89-1.2-9.72-1.2-9.72A6.13,6.13,0,0,1,27,31.56c.68.48.82.58,1.78.14L32,30.18a7,7,0,0,1-5.28-3.32c2.15-.8,5.82.39,5.82.39s-1.63-.62-4.61-3.89a29.36,29.36,0,0,1-3.12-3.64s4.23-.1,6.47-.4a33.13,33.13,0,0,1,5.66.16,18,18,0,0,1-3.67-3.42c1.36-.36,3.28.73,3.28.73a14.92,14.92,0,0,1-2.18-3,6,6,0,0,1-.56-1.66c2.95-.32,6.38-.45,8.62.37a9.29,9.29,0,0,1,3.8,2.95c-2.92-4.75-3-6.73-2.84-7.58"/><path class="cls-23" d="M43.42,7.84A19.12,19.12,0,0,1,50,10.89a17.9,17.9,0,0,1,5.31,5.6,11.49,11.49,0,0,1,1.65,6c-.23,1.86-.4,2.62-.4,2.62s5.44-5.89,9.66-6.75c-7.38,5.8-9.24,7.6-9.06,8s.92,1.28,1.25,1.26,2.18,1.49,3.94-.59,2.14-2.62,2.48-3A6.68,6.68,0,0,1,63.2,27.6c2.4-1.06,4.36-1.9,4.47-1.88.6-.32-1.3,1.91-2.1,2.1,1.67.37,3,2.7,3,2.7-.83-.54-1.88-2.26-5.09-1.75-.83,0-1.12.1-.52.79s2.05,2.09,3,2.12.94.17.94.17l-2-.09-.18,1.83a2.46,2.46,0,0,0-1.42-2.29A19.39,19.39,0,0,1,60.87,29l-.8-.34-1.67-.47-2-1.13a4,4,0,0,0-1.7-.46,20.14,20.14,0,0,0-5.56,2.2c-2.61,1.38-7.77,4.27-7.77,4.27l-1.07.4,2.4-2.06,1.7-2.94A10.92,10.92,0,0,1,40,31.64c-2.66,1.09-5.75,2.47-6.24,3.33s-.12,6.25-.12,6.25l-.78-7.72s-3.52.38-5.47-1.5c.14-.56-.1.85,4.49-1.84-3.68-.89-4-1.83-5.16-3.28a9.19,9.19,0,0,1,5.53.22,36.66,36.66,0,0,1-7.41-7.38c2.74.2,2.35-.18,5.34-.33a39.26,39.26,0,0,1,7.19.14,14.28,14.28,0,0,1-3.93-3.42,7.16,7.16,0,0,1,3.35.85,10.92,10.92,0,0,1-2.88-4.8,18.65,18.65,0,0,1,7.16,0c1.39.31,3.17.38,5.77,4.06A34.93,34.93,0,0,1,50.64,23s-3.28-5.44-5.72-7.71-5.73-3.38-10.71-2.91c.56,2.76,3.49,5.28,3.49,5.28-2.59-1.71-4-1.39-4-1.39a39.16,39.16,0,0,0,3.68,2.56,8.36,8.36,0,0,1,2.47.54c1.08.49,5.18,2.84,6,5.25-.22.59-1.59-1.9-2.74-2.33s-2.32-2.87-11.39-2.72c-3.23,0-3.38.44-6.19.44,1.1,1.2,6.92,7,9.37,7.75-3.38-.12-4.41-.87-7.31-.55C29.78,29.16,34,29.77,34,29.77c-2.66,1.4-3.27,2.48-5.47,2.46,3.67.5,4.79.5,5.65,0s.76-1.07.76-1.07-.91.08-.86-.43a8.61,8.61,0,0,1,4.73-4.85c2.92-1-.7.87-.7.87l-2.82,2.92-.58.84-.18.4a8.73,8.73,0,0,0,3.22-.45c-.64.75-2.63,1-3.29,2.06s-1.25,1.75-1.25,1.75a1.36,1.36,0,0,0,.79-.06c.49-.16,3.26-1.88,4.46-2.34s5.64-3.08,6.6-4.67a7.72,7.72,0,0,1,3.69-2.78c.62-.21.37.11.37.11a3.94,3.94,0,0,0-.69.22c-4.12,2.68-3.19,4.57-5.69,7.08,6.08-4.82,9.75-6.24,12-5.95,1.5.07-1.13-7.4-5.18-9.36,2.62-.46,7.58,3.75,6.6,9.55a14.57,14.57,0,0,0-4.28-12.63,28.86,28.86,0,0,0-8.46-5.6"/><path class="cls-24" d="M37.55,12.28a16.39,16.39,0,0,1,4.68,1.54,14.29,14.29,0,0,1,3.88,3,.06.06,0,0,1,0,.09.08.08,0,0,1-.08,0A34,34,0,0,0,42,14.34a39.16,39.16,0,0,0-4.47-1.84.11.11,0,0,1-.06-.15A.11.11,0,0,1,37.55,12.28Z"/><path class="cls-24" d="M33.43,20.1a16.18,16.18,0,0,1,4.89.49,14.35,14.35,0,0,1,4.45,2.11.06.06,0,0,1,0,.09s-.05,0-.07,0a35.88,35.88,0,0,0-4.54-1.65,37.11,37.11,0,0,0-4.75-.83.12.12,0,0,1-.1-.13A.12.12,0,0,1,33.43,20.1Z"/><path class="cls-24" d="M35.43,30.21a7.73,7.73,0,0,1,2-2.8,7.91,7.91,0,0,1,3.1-1.53.06.06,0,0,1,.08.05.06.06,0,0,1,0,.07,23.07,23.07,0,0,0-2.77,1.86,16.53,16.53,0,0,0-2.23,2.47.11.11,0,0,1-.16,0A.1.1,0,0,1,35.43,30.21Z"/><path class="cls-24" d="M44.92,29.69a7.36,7.36,0,0,1,5.48-3.91.07.07,0,0,1,.07.06s0,.05,0,.06a23.89,23.89,0,0,0-2.91,1.64,17.36,17.36,0,0,0-2.42,2.29.11.11,0,0,1-.16,0A.12.12,0,0,1,44.92,29.69Z"/><path class="cls-24" d="M34.81,12.39a16.36,16.36,0,0,1,4.47,2.07,14.17,14.17,0,0,1,3.51,3.44.07.07,0,0,1,0,.09s-.05,0-.08,0a35.75,35.75,0,0,0-3.74-3,41.88,41.88,0,0,0-4.22-2.34.1.1,0,0,1,0-.15A.11.11,0,0,1,34.81,12.39Z"/><path class="cls-24" d="M55.65,13.09a16.77,16.77,0,0,1,1.78,4.58,14,14,0,0,1,.13,4.92.05.05,0,0,1-.07.05.06.06,0,0,1-.05-.06,36,36,0,0,0-.59-4.79,39.34,39.34,0,0,0-1.41-4.61.12.12,0,0,1,.07-.15A.13.13,0,0,1,55.65,13.09Z"/><path class="cls-24" d="M56.79,13.34a15.32,15.32,0,0,1,2.32,2.57A11.85,11.85,0,0,1,60.72,19a.06.06,0,0,1,0,.08.07.07,0,0,1-.07,0c-.69-.93-1.31-1.88-2-2.79s-1.37-1.8-2-2.76a.11.11,0,0,1,0-.16A.12.12,0,0,1,56.79,13.34Z"/><path class="cls-24" d="M58.26,25.88a16.56,16.56,0,0,1,2.87-4,14.35,14.35,0,0,1,4-2.8.08.08,0,0,1,.09,0,.08.08,0,0,1,0,.08,33.69,33.69,0,0,0-3.69,3.11A39.57,39.57,0,0,0,58.46,26a.12.12,0,0,1-.16,0A.13.13,0,0,1,58.26,25.88Z"/><path class="cls-24" d="M45.16,8.91a16.34,16.34,0,0,1,4.27,2.44,14.48,14.48,0,0,1,3.2,3.74.07.07,0,0,1,0,.09.06.06,0,0,1-.08,0,35.39,35.39,0,0,0-3.47-3.36,40,40,0,0,0-4-2.7.11.11,0,0,1,.1-.2Z"/><path class="cls-24" d="M43.94,8.78a39.57,39.57,0,0,0,2.11,4.34A34.07,34.07,0,0,0,48.9,17a.07.07,0,0,1-.1.09,14.2,14.2,0,0,1-3.25-3.69,16.57,16.57,0,0,1-1.83-4.57.13.13,0,0,1,.09-.14A.12.12,0,0,1,43.94,8.78Z"/><path class="cls-24" d="M37.93,17.9A16.63,16.63,0,0,1,42.4,20a14.21,14.21,0,0,1,3.51,3.45.06.06,0,0,1,0,.09.06.06,0,0,1-.08,0,34.62,34.62,0,0,0-3.75-3,40,40,0,0,0-4.22-2.34A.11.11,0,0,1,37.8,18,.1.1,0,0,1,37.93,17.9Z"/><path class="cls-24" d="M64.59,24.59a3.54,3.54,0,0,1,1.45.47,3,3,0,0,1,1.12,1.05.07.07,0,0,1,0,.09h-.06a6.23,6.23,0,0,1-.69-.3l-.63-.34a8.87,8.87,0,0,1-1.26-.77.12.12,0,0,1,0-.17A.15.15,0,0,1,64.59,24.59Z"/><path class="cls-24" d="M67.43,30.39a4.6,4.6,0,0,1-2.3-.05,4.15,4.15,0,0,1-1.06-.46,4.77,4.77,0,0,1-.9-.71.09.09,0,0,1,0-.1.06.06,0,0,1,.07,0c.72.24,1.37.54,2.05.72s1.39.25,2.13.38a.11.11,0,0,1,.09.13A.11.11,0,0,1,67.43,30.39Z"/><path class="cls-24" d="M54.54,25.47a16.41,16.41,0,0,1-3.12-3.81A14,14,0,0,1,49.76,17a.07.07,0,0,1,.06-.07s0,0,.07,0a34.3,34.3,0,0,0,2,4.38,40.15,40.15,0,0,0,2.78,3.94.11.11,0,0,1,0,.16A.11.11,0,0,1,54.54,25.47Z"/><path class="cls-24" d="M37.89,22.85A16.26,16.26,0,0,1,33,22.51a14.09,14.09,0,0,1-4.51-2,.07.07,0,0,1,0-.09.07.07,0,0,1,.08,0,34.07,34.07,0,0,0,4.58,1.51,37.67,37.67,0,0,0,4.78.68.12.12,0,0,1,.1.13A.1.1,0,0,1,37.89,22.85Z"/><path class="cls-24" d="M40.87,24.89a16.23,16.23,0,0,1-4.92,0,14.28,14.28,0,0,1-4.63-1.67.06.06,0,0,1,0-.09.08.08,0,0,1,.07,0,36.18,36.18,0,0,0,4.68,1.21,40,40,0,0,0,4.81.36.12.12,0,0,1,.11.12A.12.12,0,0,1,40.87,24.89Z"/><path class="cls-24" d="M39.6,29.41a9.08,9.08,0,0,1,2.34-2.9,8.88,8.88,0,0,1,3.37-1.6.07.07,0,0,1,.08.05s0,.05,0,.07a24.72,24.72,0,0,0-3,1.94,20.44,20.44,0,0,0-2.52,2.57.12.12,0,0,1-.17,0A.11.11,0,0,1,39.6,29.41Z"/><path class="cls-24" d="M34.43,28.41a9.56,9.56,0,0,1-3.29.05,8.27,8.27,0,0,1-3.06-1.18.07.07,0,0,1,0-.09.05.05,0,0,1,.07,0c1.06.26,2.07.56,3.11.72s2.09.21,3.18.3a.11.11,0,0,1,.1.13A.11.11,0,0,1,34.43,28.41Z"/><path class="cls-25" d="M40.16,33.89,40,33.64a12.21,12.21,0,0,0,4.28-5.22,7,7,0,0,1,4.26-4.14l.11.27a6.68,6.68,0,0,0-4.11,4A11.93,11.93,0,0,1,41.28,33c1.07-.57,2.21-1.22,3.4-1.89C48.26,29.05,52,26.93,55,26.42l0,.29c-3,.5-6.66,2.6-10.22,4.64C43.16,32.3,41.59,33.2,40.16,33.89Z"/><path class="cls-25" d="M32.56,30.38C28.07,30,26.63,27,26.62,26.92l-.07-.14.15-.06a9.26,9.26,0,0,1,4.84.08,38.85,38.85,0,0,1-6.81-7l-.18-.23h.29c1.18,0,2.38-.1,3.66-.21a40.9,40.9,0,0,1,8.49,0c5.13.59,8.72,5.29,8.75,5.33l-.23.18c0-.05-3.55-4.64-8.56-5.21a40.43,40.43,0,0,0-8.43,0c-1.17.1-2.29.19-3.38.21,1.89,2.44,5.44,6.27,7.49,7.25l-.11.27S29.23,26.25,27,27a6.81,6.81,0,0,0,5.62,3.14Z"/><path class="cls-25" d="M56,26.81l-.27-.12a10.29,10.29,0,0,0-.14-9.31c-2.45-4.92-8.11-8.51-12.2-9.4l.07-.28c4.15.89,9.9,4.54,12.39,9.55A10.53,10.53,0,0,1,56,26.81Z"/><path class="cls-25" d="M36.89,19.6a18.45,18.45,0,0,1-3.71-3.46L33.07,16l.18-.06a4.55,4.55,0,0,1,2.74.44c-2.14-2.47-2.29-4.18-2.3-4.25V12l.14,0c6.09-.71,9-.21,11.52,2.24-2.71-4.67-2.08-6.33-2.05-6.4l.27.11s-.68,1.94,2.82,7.44l-.23.17c-2.73-3.34-5.36-4.06-12.14-3.29a9.47,9.47,0,0,0,2.68,4.47l.6.64-.78-.41a6.37,6.37,0,0,0-3-.78,19.09,19.09,0,0,0,3.5,3.22Z"/><path class="cls-25" d="M56,26.84l-.29,0c0-.08.53-8-6-10.23-.12.72-.29,4.12,5.36,9.89l-.21.2C48.32,20,49.4,16.5,49.45,16.35l0-.14.14.05C56.56,18.51,56,26.76,56,26.84Z"/><path class="cls-25" d="M62.2,19.3c-.55-2.62-6-6.68-7.08-7.48-.07.48-.25,1.7-.52,3.62l-.29,0c.36-2.54.56-3.86.56-3.86l0-.24.2.14c.27.19,6.75,4.78,7.39,7.8Z"/><path class="cls-25" d="M60.67,29l-.1-.28c2.76-.94,5.49-7.94,5.63-10.45-.84.3-4.51,1.91-10.22,8.62l-.22-.19c6.6-7.75,10.4-8.74,10.56-8.78l.18,0V18C66.5,20.38,63.6,28,60.67,29Z"/><path class="cls-25" d="M35.46,31.06a1.67,1.67,0,0,1-1-.2.19.19,0,0,1,0-.25,2.93,2.93,0,0,0,.22-.3c.73-1.08,3-4.37,6.73-5.25l.07.28c-3.65.86-5.84,4.08-6.56,5.13l-.16.24a5.7,5.7,0,0,0,3.36-.6l.15.25A5.84,5.84,0,0,1,35.46,31.06Z"/><path class="cls-25" d="M33,34.46l-.1-.17a24.1,24.1,0,0,0,7.26-6.42,8.33,8.33,0,0,1,1.25-1.42l.12.15A8.42,8.42,0,0,0,40.31,28,24.32,24.32,0,0,1,33,34.46Z"/><path class="cls-25" d="M32.57,34.77h0a.29.29,0,0,1-.14,0l-.07-.14c0-.1.08-.12.27-.17.57-.16.93-.73,1.38-1.45a7.64,7.64,0,0,1,1.84-2.21L36,31a7.27,7.27,0,0,0-1.77,2.12,7.53,7.53,0,0,1-.77,1.08,39.61,39.61,0,0,0,9.32-4.29l.16.25a38,38,0,0,1-10.33,4.56Z"/><path class="cls-25" d="M31.5,33.65a5.94,5.94,0,0,1-4.66-2l0-.21c.11-.08.23,0,.32.12.48.48.83.34,2.44-.43.58-.27,1.3-.62,2.24-1l.11.27c-.93.4-1.65.74-2.23,1a5.61,5.61,0,0,1-2,.73,6.7,6.7,0,0,0,6.39.77l.1.27A8.12,8.12,0,0,1,31.5,33.65Z"/><path class="cls-25" d="M24.94,19.83a20.58,20.58,0,0,0,7.65,4.58,18.66,18.66,0,0,0,8.84.58l.06.35a18.66,18.66,0,0,1-9-.74,20.59,20.59,0,0,1-7.63-4.73Z"/><path class="cls-25" d="M27,27a12.73,12.73,0,0,0,4.54,1.92A6.59,6.59,0,0,0,36.23,28l.11.17A7.42,7.42,0,0,1,34,29a6.83,6.83,0,0,1-2.51,0,12.93,12.93,0,0,1-4.55-2Z"/><path class="cls-25" d="M24.93,19.83c1.16.52,2.35,1,3.55,1.43s2.41.85,3.64,1.19a31.89,31.89,0,0,0,3.73.84,16.72,16.72,0,0,0,3.8.2l0,.19a16.43,16.43,0,0,1-3.84-.24,31.7,31.7,0,0,1-3.74-.87c-1.23-.36-2.44-.78-3.64-1.23s-2.38-.93-3.54-1.47Z"/><path class="cls-25" d="M24.85,19.67c1.56.15,3.13.27,4.69.47.79.09,1.57.17,2.35.29s1.56.21,2.33.36l1.16.2,1.16.25c.77.15,1.53.36,2.29.57.38.12.76.23,1.13.37a8.81,8.81,0,0,1,1.1.46,4.83,4.83,0,0,1,1,.61l.24.19c.07.07.14.16.2.23a.88.88,0,0,1,.22.63l-.19-.06a.69.69,0,0,0,0-.22,1.76,1.76,0,0,0-.14-.23,1.9,1.9,0,0,0-.19-.21L42,23.4a5.56,5.56,0,0,0-1-.6c-.34-.19-.72-.3-1.08-.46L38.78,22c-.75-.21-1.5-.42-2.27-.58-.39-.08-.77-.17-1.16-.24l-1.16-.21c-.77-.15-1.55-.25-2.32-.37s-1.56-.21-2.34-.31c-1.56-.2-3.13-.33-4.69-.48Z"/><path class="cls-25" d="M41.4,19c0-.05-5.37-5.34-7.61-6.83l.1-.17c2.26,1.51,7.59,6.81,7.65,6.86Z"/><path class="cls-25" d="M53,26.62c-2.48-.37-5-3.29-7.73-6.39-3.29-3.77-7-8-11.15-8h-.27V12c4.31-.2,8.17,4.21,11.57,8.1,2.67,3.07,5.2,6,7.61,6.32Z"/><path class="cls-25" d="M54.1,18.41c-2.17-3.19-6.49-6.85-9.07-9-.76-.64-1.36-1.15-1.67-1.46l.13-.14c.32.3.91.81,1.67,1.45,2.58,2.2,6.91,5.87,9.1,9.08Z"/><path class="cls-25" d="M57.45,24.31l-.18-.08C59.73,18.79,55.5,12.5,55,11.8l.16-.11C55.66,12.39,60,18.77,57.45,24.31Z"/><path class="cls-25" d="M49.83,16.67C50.88,18.11,52,19.48,53,21a23.23,23.23,0,0,1,2.27,4.84l-.18.07a23.54,23.54,0,0,0-2.18-4.86C52,19.52,50.85,18.13,49.83,16.67Z"/><path class="cls-25" d="M59.73,27.66l-.14-.13A41.53,41.53,0,0,0,66.26,18l.19,0C66.34,18.63,63.6,23.45,59.73,27.66Z"/><path class="cls-25" d="M52.31,26l-.52-.46c-1.07-.9-2.67-2.26-6.44-8.56l.16-.1c3.76,6.27,5.35,7.62,6.4,8.51l.53.46Z"/><path class="cls-25" d="M40.84,33.46l-.11-.16a13,13,0,0,0,4.37-4.51,7.72,7.72,0,0,1,3-3.12l.1.17a7.57,7.57,0,0,0-3,3.05A13.22,13.22,0,0,1,40.84,33.46Z"/><path class="cls-25" d="M41.94,32.92l-.12-.16c.71-.53,1.39-1.12,2.11-1.74A26.53,26.53,0,0,1,51,26.25l.08.18a26.72,26.72,0,0,0-7.06,4.74C43.33,31.79,42.65,32.38,41.94,32.92Z"/><path class="cls-25" d="M27.39,32a5.6,5.6,0,0,0,1.63.19A8.83,8.83,0,0,0,30.65,32a7,7,0,0,0,3-1.25l.22.3a7.42,7.42,0,0,1-3.15,1.15,8.54,8.54,0,0,1-1.67.08A6.05,6.05,0,0,1,27.38,32Z"/><path class="cls-25" d="M34.6,30.82l-.06-.19a7.64,7.64,0,0,0,3.27-2.29,7.6,7.6,0,0,1,2.46-1.91l.08.18A7.44,7.44,0,0,0,38,28.48,7.84,7.84,0,0,1,34.6,30.82Z"/><path class="cls-25" d="M51.45,24.47a41.47,41.47,0,0,1-2.38-4.13,34.82,34.82,0,0,0-2.89-4.86l.16-.12a35.72,35.72,0,0,1,2.9,4.88,42.29,42.29,0,0,0,2.36,4.12Z"/><path class="cls-25" d="M46.52,15.22a23,23,0,0,0-6.89-5.7l.06-.19a23.2,23.2,0,0,1,7,5.77Z"/><path class="cls-25" d="M56,16.44a13.75,13.75,0,0,0-4-5.5c-.47-.46-1-1-1.62-1.61l.14-.14c.61.62,1.14,1.15,1.62,1.61a13.88,13.88,0,0,1,4,5.56Z"/><path class="cls-25" d="M60.73,18.06c-2.34-3.87-1.09-6.28-.09-8.23l.09-.16.17.09-.08.16c-1,2-2.21,4.27.08,8Z"/><path class="cls-25" d="M61.75,20.55l-.17-.09c1.3-2.6,1.12-4.24-.85-7.58l.17-.1C62.91,16.2,63.09,17.87,61.75,20.55Z"/><path class="cls-25" d="M60.05,22.75l-.19,0A3.3,3.3,0,0,1,60.92,21a35.74,35.74,0,0,0,4.83-6.59l.17.1a36.22,36.22,0,0,1-4.86,6.63A3.07,3.07,0,0,0,60.05,22.75Z"/><path class="cls-25" d="M64.61,23.73l0-.19c2.18-.2,3.58-1,4.15-2.29l.18.08C68.51,22.28,67.42,23.47,64.61,23.73Z"/><path class="cls-25" d="M68.54,26.9A14.81,14.81,0,0,0,63.72,24l.06-.19a14.89,14.89,0,0,1,4.89,3Z"/><path class="cls-25" d="M60.63,29l0-.29a11.06,11.06,0,0,0,7.17-2.93c-.6-1.16-3.17-1.72-3.19-1.72l.06-.29c.11,0,2.86.62,3.44,2l0,.08-.07.07A11.1,11.1,0,0,1,60.63,29Z"/><path class="cls-25" d="M66.37,32.11c-2.29,0-3.6-1.8-4.59-3.15l0-.06.24-.17,0,.05c1,1.4,2.25,3.1,4.45,3l-.36-.26a7.15,7.15,0,0,0-1-.72l.15-.26a9.75,9.75,0,0,1,1.07.74c.41.32.6.47,1,.4l0,.29A4.75,4.75,0,0,1,66.37,32.11Z"/><path class="cls-25" d="M66.37,31a5.13,5.13,0,0,1-1.29-.11l.11-.28a8.1,8.1,0,0,0,3.26-.15c-1.7-2.51-3.37-2.54-3.39-2.54h0v-.29c.08,0,1.91,0,3.73,2.81l.09.14-.14.07A6.3,6.3,0,0,1,66.37,31Z"/><path class="cls-25" d="M63.64,43.08a1.71,1.71,0,0,0-.11.14h0c0-.25,0-.5-.08-.74a1.51,1.51,0,0,1,0-.37l0-.37.15-1.45c.1-1,.22-1.94.35-2.91s.29-1.94.48-2.89c.1-.48.18-1,.24-1.43q0-.36.06-.72c0-.11,0-.23,0-.34a.76.76,0,0,0,0-.16.14.14,0,0,0,0-.07h0l0,0,.11-.28c.09.05.07.07.1.09l0,.06a.76.76,0,0,1,0,.11,1.55,1.55,0,0,1,0,.21c0,.13,0,.25,0,.38s0,.5,0,.74c0,.49-.13,1-.22,1.46-.19,1-.34,1.91-.47,2.88s-.24,1.93-.35,2.9l-.14,1.45a5.67,5.67,0,0,1-.1.72c-.08.24-.14.48-.21.72h0l-.16-.08Z"/><path class="cls-9" d="M63.35,43.15A20.61,20.61,0,0,1,63,39.39c-.12-3.22-1.25-10.55-2.68-10.55a5.69,5.69,0,0,1-3-1.07A13.57,13.57,0,0,0,55.79,27l.12-.26a11.75,11.75,0,0,1,1.54.82,5.46,5.46,0,0,0,2.83,1c1.94,0,2.89,8.53,3,10.82a19.62,19.62,0,0,0,.39,3.71Z"/><path class="cls-9" d="M34.1,43.74,34,43.48l.07.13L34,43.49c.32-.33.61-5.07.72-9.36H35C34.89,36.92,34.66,43.44,34.1,43.74Z"/><path class="cls-25" d="M33,33.36l.5,5.13c.09.85.17,1.71.27,2.56,0,.42.1.85.16,1.27,0,.21.06.42.1.63a1.23,1.23,0,0,1,0,.66h0a1.09,1.09,0,0,1-.27-.6c0-.22-.07-.43-.11-.64-.07-.43-.13-.85-.18-1.28-.12-.86-.22-1.71-.31-2.56L32.91,36l-.2-2.57Z"/><path class="cls-26" d="M47.39,55.52a.2.2,0,0,1-.2-.2,3,3,0,0,0-3.09-2.54.2.2,0,1,1,0-.39,3.33,3.33,0,0,1,3.48,2.93A.19.19,0,0,1,47.39,55.52Z"/><path class="cls-26" d="M45.92,55.75a.17.17,0,0,1-.14-.07l-.72-.78a.19.19,0,0,1,0-.27.19.19,0,0,1,.28,0l.72.78a.2.2,0,0,1,0,.28A.19.19,0,0,1,45.92,55.75Z"/><path class="cls-11" d="M44.2,46.71a3.64,3.64,0,0,0,3.49,3.12,4.42,4.42,0,0,0,3.9-3.36c-.66.67-2.23,2.53-3.69,2.53S44.2,46.71,44.2,46.71Z"/><path class="cls-9" d="M50.49,44.74c.2.2.41.4.61.62a2.19,2.19,0,0,1,.5.81.85.85,0,0,1-.05.53,1.88,1.88,0,0,1-.23.42,4.34,4.34,0,0,1-.61.67,6.64,6.64,0,0,1-1.47,1,6.27,6.27,0,0,1-.83.35,2.81,2.81,0,0,1-.91,0,3.44,3.44,0,0,1-.45,0,2.06,2.06,0,0,1-.44-.14,4.55,4.55,0,0,1-.79-.41,4.8,4.8,0,0,1-1.35-1.2,1.8,1.8,0,0,1-.23-.46,1,1,0,0,1,0-.56,2.33,2.33,0,0,1,.53-.8c.42-.43.86-.79,1.3-1.16a.2.2,0,0,1,.28,0,.2.2,0,0,1,0,.26c-.4.42-.84.8-1.22,1.2a1.76,1.76,0,0,0-.41.62.74.74,0,0,0,0,.29.93.93,0,0,0,.14.31,5,5,0,0,0,1.88,1.54,1.86,1.86,0,0,0,.37.14,2.9,2.9,0,0,0,.41.06,2.14,2.14,0,0,0,.8,0,6.87,6.87,0,0,0,.74-.34,6.25,6.25,0,0,0,1.36-1,3.3,3.3,0,0,0,.52-.61.89.89,0,0,0,.19-.59,2,2,0,0,0-.38-.61L50.21,45h0a.2.2,0,0,1,0-.28A.2.2,0,0,1,50.49,44.74Z"/><path class="cls-9" d="M44.7,47.25c.08,0,.15-.13.25-.2a.54.54,0,0,1,.44-.11,1.09,1.09,0,0,1,.63.5,4.6,4.6,0,0,1,.6,1.27.05.05,0,0,1,0,.08.08.08,0,0,1-.08,0h0l-.38-.57c-.12-.19-.26-.37-.39-.54a1.19,1.19,0,0,0-.41-.36.31.31,0,0,0-.22,0,1.42,1.42,0,0,1-.36.1.09.09,0,0,1-.09-.09.07.07,0,0,1,0-.08Z"/><path class="cls-9" d="M49.41,48.42a6.17,6.17,0,0,1,.07-.74,2.19,2.19,0,0,1,.24-.75.87.87,0,0,1,.33-.33.74.74,0,0,1,.48-.07,1.59,1.59,0,0,1,.69.41.11.11,0,0,1,0,.15.11.11,0,0,1-.13,0h0a2.44,2.44,0,0,0-.62-.22.41.41,0,0,0-.4.25,3.21,3.21,0,0,0-.25.62,6.46,6.46,0,0,1-.26.69.08.08,0,0,1-.1,0S49.41,48.45,49.41,48.42Z"/><path class="cls-14" d="M48.83,46.35c0,.44-.67,0-1.11,0s-1.12.48-1.11,0a1.41,1.41,0,0,1,1.11-1.09A1.33,1.33,0,0,1,48.83,46.35Z"/></g></g></svg>