<svg xmlns="http://www.w3.org/2000/svg" viewBox="0 0 20.92 22.83"><g id="Capa_2" data-name="Capa 2"><g id="Capa_3" data-name="Capa 3"><path d="M10.46,22.83c-2.21,0-4.43,0-6.65,0a3.94,3.94,0,0,1-2.37-.74A3.32,3.32,0,0,1,.09,19.92,6,6,0,0,1,0,18.58a17,17,0,0,1,.2-2.36,10,10,0,0,1,1-3.24,4.92,4.92,0,0,1,1.43-1.74,4.05,4.05,0,0,1,2.06-.74h0a1.21,1.21,0,0,1,1,.24c.49.32,1,.66,1.48.93a6.78,6.78,0,0,0,3.55.87,7,7,0,0,0,3.43-1.08c.47-.29.92-.61,1.4-.88a.65.65,0,0,1,.34-.1,4.18,4.18,0,0,1,3.68,2.15,9.16,9.16,0,0,1,1,2.81,17.22,17.22,0,0,1,.33,3.72,3.72,3.72,0,0,1-.77,2.31A3.53,3.53,0,0,1,18,22.74a5.22,5.22,0,0,1-1,.09Z"/><path d="M10.45,11.43A5.76,5.76,0,0,1,4.74,5.71,5.8,5.8,0,0,1,10.47,0a5.78,5.78,0,0,1,5.71,5.75A5.74,5.74,0,0,1,10.45,11.43Z"/></g></g></svg>