<svg xmlns="http://www.w3.org/2000/svg" viewBox="0 0 18.88 22.82"><g id="Capa_2" data-name="Capa 2"><g id="Capa_3" data-name="Capa 3"><path d="M0,11.4V4A3.85,3.85,0,0,1,4,0h11a3.85,3.85,0,0,1,4,4V18.86a3.85,3.85,0,0,1-3.94,3.95c-3.67,0-7.33,0-11,0A3.85,3.85,0,0,1,0,18.86Zm1.62,0c0,2.48,0,5,0,7.43A2.19,2.19,0,0,0,4,21.17H14.88a3.34,3.34,0,0,0,.64,0,2.22,2.22,0,0,0,1.73-2.33c0-3.18,0-6.37,0-9.55,0-1.75,0-3.5,0-5.25a2.19,2.19,0,0,0-2.37-2.34q-5.43,0-10.88,0a2.68,2.68,0,0,0-.64.05A2.2,2.2,0,0,0,1.63,4Q1.62,7.71,1.62,11.4Z"/><path d="M9.45,5h4.87a.82.82,0,0,1,.91.8.8.8,0,0,1-.81.83c-.31,0-.61,0-.91,0H4.87a2.75,2.75,0,0,1-.5,0A.81.81,0,0,1,4.46,5h5Z"/><path d="M9.4,14.07H4.49a.8.8,0,0,1-.83-.64.78.78,0,0,1,.47-.9,1.72,1.72,0,0,1,.56-.07h7.15c.82,0,1.65,0,2.47,0,.59,0,.93.31.92.82a.81.81,0,0,1-.92.79Z"/><path d="M9.46,8.74h4.95a.8.8,0,0,1,.32,1.55,1.1,1.1,0,0,1-.41.06H4.55a.81.81,0,1,1,0-1.61Z"/><path d="M7.73,17.79c-1.05,0-2.09,0-3.13,0-.58,0-.94-.3-.95-.8s.34-.83,1-.83c2.09,0,4.19,0,6.28,0,.61,0,1,.32,1,.82s-.38.81-1,.81C9.83,17.8,8.78,17.79,7.73,17.79Z"/></g></g></svg>