<svg xmlns="http://www.w3.org/2000/svg" viewBox="0 0 22.83 22.83"><g id="Capa_2" data-name="Capa 2"><g id="Capa_3" data-name="Capa 3"><path d="M0,11.41A11.42,11.42,0,1,1,11.41,22.83,11.42,11.42,0,0,1,0,11.41Zm12.06,7a14,14,0,0,0,2.63-3.16A20.75,20.75,0,0,0,17.23,10a6.18,6.18,0,0,0,.18-3.46A5.54,5.54,0,0,0,15,3.33a1.13,1.13,0,0,0-.22-.11.83.83,0,0,0-1.23.41,17.07,17.07,0,0,0-1.19,2.74,6,6,0,0,0-.19.73.54.54,0,0,0,.34.68,10.65,10.65,0,0,0,1.08.38l.4.13A.6.6,0,0,1,14.4,9a5.64,5.64,0,0,1-.29,1.07,15.64,15.64,0,0,1-3.25,5.35l-.08.09c-.48.47-.81.47-1.3,0-.25-.24-.5-.49-.77-.71-.45-.36-.74-.36-1.12.08C7,15.55,6.47,16.25,5.92,17a6.22,6.22,0,0,0-.5.76.8.8,0,0,0,.22,1.17A3.2,3.2,0,0,0,7,19.49c.52.12,1.06.2,1.59.3v-.06A5.14,5.14,0,0,0,12.06,18.36Z"/></g></g></svg>