<svg xmlns="http://www.w3.org/2000/svg" viewBox="0 0 32.53 23.07"><g id="Capa_2" data-name="Capa 2"><g id="Capa_3" data-name="Capa 3"><path d="M10.11,19.67a1.46,1.46,0,0,1-1.8.12,1.69,1.69,0,0,1-.87-2.06,6.92,6.92,0,0,1-.65.27,1.73,1.73,0,0,1-1.95-.9,1.54,1.54,0,0,1,.23-1.83l.73-.87c.18-.21.18-.22,0-.42-.39-.48-.78-1-1.16-1.43a.29.29,0,0,1,0-.22c.12-.36.26-.71.4-1.07l.07-.09.68.82,1,1.12a.17.17,0,0,0,.24.05,1.74,1.74,0,0,1,2.54,1.5,1.63,1.63,0,0,1-.29.94,1.66,1.66,0,0,1,1.94.25,1.63,1.63,0,0,1,.55,1.9,1.57,1.57,0,0,1,1.93.15,1.58,1.58,0,0,1,.57,1.85,1.19,1.19,0,0,1,.87-.16,1.57,1.57,0,0,1,1.26,1.5.22.22,0,0,1,0,.14c-.14.23,0,.32.17.44a1.31,1.31,0,0,0,1.22.18.94.94,0,0,0,.57-.6.21.21,0,0,0-.08-.27L15.6,19.06a2.23,2.23,0,0,1-.24-.19.44.44,0,0,1-.12-.56.52.52,0,0,1,.54-.36.6.6,0,0,1,.26.11l2.25,1.59L20.21,21a.84.84,0,0,0,.94.11,1,1,0,0,0,.58-.91.81.81,0,0,0-.32-.68l-3.76-2.73-.76-.56a.57.57,0,0,1-.19-.79.59.59,0,0,1,.82-.12l1.91,1.35,2.92,2.08c.14.1.28.21.42.3a1,1,0,0,0,1.39-.2,1,1,0,0,0-.2-1.28L21.08,15.5l-2.91-2.09a.74.74,0,0,1-.33-.7c.05-.39.5-.55.91-.29s.7.48,1,.73l3.28,2.33c.55.4,1.12.79,1.66,1.21a1.25,1.25,0,0,0,1.68-.14,1.1,1.1,0,0,0-.06-1.62c-1.25-1.06-2.46-2.14-3.69-3.22s-2.73-2.37-4.09-3.57a11.91,11.91,0,0,1-.89-.85,1.61,1.61,0,0,0-.77-.46,2,2,0,0,0-1.24,0A1.69,1.69,0,0,0,14.5,8.13a3.53,3.53,0,0,1-2.21,2.76,2.6,2.6,0,0,1-1.9,0,1.11,1.11,0,0,1-.7-1,1.21,1.21,0,0,1,.16-.45,5.27,5.27,0,0,0,.49-2.06,4.55,4.55,0,0,1,.12-1.11A7.26,7.26,0,0,1,11,5.18c.06-.13.13-.24.22-.4H8c.14-.26.26-.48.37-.7a4.52,4.52,0,0,0,.28-.53A.32.32,0,0,1,9,3.33h4.48a.46.46,0,0,0,.2,0A6.1,6.1,0,0,1,16,2.47a9.36,9.36,0,0,1,1.58-.13,7.69,7.69,0,0,1,2.12.38c.58.17,1.17.31,1.76.46a8.62,8.62,0,0,0,2,.24.26.26,0,0,1,.18.13c.51,1,1,2.07,1.5,3.11s1.05,2.19,1.58,3.28c.38.81.76,1.61,1.14,2.43a.26.26,0,0,1,0,.21q-.27.64-.57,1.29a.24.24,0,0,0,0,.3,2.43,2.43,0,0,1,.59,2.15,2.06,2.06,0,0,1-1.17,1.5,3.79,3.79,0,0,1-1,.23c-.16,0-.2.09-.2.24a2.17,2.17,0,0,1-.47,1.4,2.15,2.15,0,0,1-1.57.69h-.08c-.43,0-.42,0-.56.43a2.26,2.26,0,0,1-1,1.28,1.49,1.49,0,0,1-1.13.15,6.09,6.09,0,0,1-1.1-.42c-.16-.07-.22-.05-.3.09a2.27,2.27,0,0,1-1.11,1,1.92,1.92,0,0,1-1.56-.05,4.33,4.33,0,0,1-.79-.44c-.18-.12-.29-.11-.4.06l-.1.12a1,1,0,0,1-1.47.27,1.44,1.44,0,0,1-.85-1.45.62.62,0,0,0,0-.12.81.81,0,0,0-.13.11,1.33,1.33,0,0,1-1.75.3A1.7,1.7,0,0,1,10,20,3,3,0,0,1,10.11,19.67Z"/><path d="M5.56,0l.72.31L7.79,1a.67.67,0,0,1,.46.55A.85.85,0,0,1,8.2,2q-1,2-1.94,4.06c-.63,1.34-1.28,2.66-1.92,4-.29.62-.58,1.25-.88,1.87a.72.72,0,0,1-1.06.37L.47,11.41a.75.75,0,0,1-.38-1.05C.56,9.42,1,8.47,1.45,7.52s1-2,1.43-3l2-4.12A.76.76,0,0,1,5.56,0Z"/><path d="M27,0a.7.7,0,0,1,.67.4c.63,1.3,1.25,2.6,1.87,3.9l2.1,4.42.8,1.67a.69.69,0,0,1-.29.94c-.24.14-.51.26-.77.38L30,12.38a.68.68,0,0,1-.89-.38L27.68,9.06,26.33,6.23c-.53-1.09-1-2.18-1.57-3.27-.16-.35-.33-.69-.47-1a.63.63,0,0,1,.31-.81c.29-.17.61-.3.92-.45L26.8.07Z"/></g></g></svg>